<svg xmlns="http://www.w3.org/2000/svg" viewBox="0 0 360 348.24"><defs><style>.cls-1{isolation:isolate;}.cls-10,.cls-2{fill:#446592;}.cls-3{fill:#b3b3b3;}.cls-11,.cls-12,.cls-14,.cls-4,.cls-6{fill:#fff;}.cls-5{fill:#c1c1c1;}.cls-6{font-size:30px;font-family:Calistoga-Regular, Calistoga;}.cls-7{fill:#aae0fa;}.cls-8{fill:#9c3d39;}.cls-9{fill:#aa0001;}.cls-10{mix-blend-mode:multiply;}.cls-11{mix-blend-mode:overlay;opacity:0.26;}.cls-12{opacity:0.16;}.cls-13{fill:#fefefe;}.cls-14{opacity:0.27;}.cls-15{fill:none;stroke:#000;stroke-miterlimit:10;}</style></defs><g class="cls-1"><g id="Calque_2" data-name="Calque 2"><g id="Layer_1" data-name="Layer 1"><circle class="cls-2" cx="180.42" cy="189.02" r="136.42" transform="translate(-80.81 182.94) rotate(-45)"/><path class="cls-3" d="M51.91,216.63c.36,1.51.74,3,1.11,4.5.58,2.26,1.17,4.41,1.76,6.56C53.79,224,52.83,220.25,51.91,216.63Z"/><path class="cls-3" d="M27.37,196.25c0,.12,0,.18,0,.18S27.38,196.32,27.37,196.25Z"/><path class="cls-4" d="M42.89,168.59c0-.05,0-.09,0-.14,0-.85,0-.85,0-1.74l-9.89,2.53c-1.46.38-3.31,7.56-4,10.71h0C31.86,168.75,38.64,169.88,42.89,168.59Z"/><path class="cls-3" d="M26.74,186.12c0-.21,0-.38,0-.56,0,.18,0,.35,0,.56Z"/><path class="cls-4" d="M61.62,153.93a5,5,0,0,1,.68-1.68l-14,3.58A1.3,1.3,0,0,0,48,156h0a2.35,2.35,0,0,0-.38.26h0c-.72.66-1.42,2.07-1.89,4.39.12,0-.5,4.46-.68,6.31l0,.73C46.67,154.37,56.34,155.25,61.62,153.93Z"/><path class="cls-3" d="M96.8,209l0-.12c0-.18-.07-.4-.1-.57Z"/><path class="cls-2" d="M91.32,203.82c-5.2-18.55-11.1-33.34-16.17-42.45a181.28,181.28,0,0,1,15,42.73Z"/><path class="cls-2" d="M79.54,212.55c.13.42.26.89.39,1.36a2.92,2.92,0,0,1,.11.32c3-.69,6.07-1.42,9.16-2.06,2.21-.48,4.43-.9,6.67-1.29.23-1.71.55-3.25.65-4.16l.13,1a13.29,13.29,0,0,1,.08-2.95C91,206,85.27,207.28,79.6,208.69A15.05,15.05,0,0,0,79.54,212.55Z"/><path class="cls-2" d="M93.26,218.51c.7,3.28,1.45,6.72,2.3,10.46.71,4.33,1.51,8.86,2.44,13.65,1.22,7,2.69,14.35,3.26,21.57.06-2.2,0-4.8-.17-7.79-.63-10.67-2.77-24-6.08-38.23C94.42,218.27,93.84,218.4,93.26,218.51Z"/><path class="cls-2" d="M80.74,253.38c-4-10.23-8.08-22.79-12.25-36.22a201.41,201.41,0,0,1-6-25.15c-2.56-12.31-2.57-18.32-2.34-21.88v-.25c-5,1.86-10.44,3-15,5.49,0,0,0,.12,0,.2,0,.7.11,1.41.14,2.13,0,.22,0,.49.07.72,0,.48.09,1,.12,1.48,0,.28.05.56.09.85,0,.51.09,1,.15,1.52s.12,1.2.2,1.85c0,.28.06.56.09.84.07.53.14,1,.2,1.57,0,.16,0,.37.08.53.15,1.25.33,2.47.51,3.76a68.75,68.75,0,0,1,11.13-5.31c3,21.53,14.73,50.07,20.12,62.14,4.3,11.41,8.91,21,13.17,26.26C87.76,269.61,84.28,262.39,80.74,253.38Z"/><path class="cls-4" d="M60.11,166.42c-5.1.77-9.92,2.65-14.81,4.28a1.21,1.21,0,0,1-.34.09c0,1.41.08,2.9.17,4.58,4.58-2.47,10-3.63,15-5.49C60.11,168.71,60.1,167.54,60.11,166.42Z"/><path class="cls-2" d="M94.51,216.12a10.76,10.76,0,0,0,1.1-.23,13.42,13.42,0,0,1-.07-1.58c-1.84.42-3.69.87-5.52,1.37-2.94.73-5.88,1.6-8.85,2.45a7.17,7.17,0,0,0,.67.91c3.67-.88,7.33-1.74,11-2.55v0c.56-.1,1.12-.24,1.68-.38Z"/><path class="cls-4" d="M27.45,196.86c0-.09,0-.23-.05-.37l-.14.06c-4.75,1.62-9.15,3.25-13.57,4.78l-.4.06c0,.88.09,2.13.2,3.56,4.89-2,9.33-3.6,14.22-5.6C27.62,198.54,27.52,197.74,27.45,196.86Z"/><path class="cls-2" d="M42.24,254.94c-1.88-4.54-3.65-9.45-5.28-14.51a148.1,148.1,0,0,1-4.46-14.26c-.18-.69-.33-1.39-.5-2.08a91.58,91.58,0,0,1-2.73-14.45c-.66-3.75-1.13-6.73-1.51-9.88,0-.15,0-.26-.05-.41-4.89,2-9.33,3.58-14.22,5.6.27,3.24.72,7.31,1,9.55l.51,2.18c6.22-2.62,10.51-3.51,12.81-4.9C30.38,222.18,35.13,242,42.24,255Z"/><path class="cls-2" d="M51,221.66a278.36,278.36,0,0,1-7.4-39.54,132.07,132.07,0,0,0-14.73,5.35,144.11,144.11,0,0,0,1.67,17.33c2.33-1,10-4.78,12.37-5.73,2,13.83,17.86,56.85,21.54,62.73A279.37,279.37,0,0,1,51,221.66Z"/><path class="cls-4" d="M43.37,179.54c-4.43,1.18-14.11,4-14.5,3.89,0,1.26,0,2.62,0,4a132.07,132.07,0,0,1,14.73-5.35C43.52,181.26,43.45,180.37,43.37,179.54Z"/><path class="cls-4" d="M26.73,185.56h0c0-.63,0-1.21,0-1.78-2.17.53-4.31,1.08-6,1.5l-2.83.73c-1.53.4-3.66,5.64-4.54,12.16h0C16.09,188.23,18.27,186.73,26.73,185.56Z"/><path class="cls-4" d="M2.06,221.76c.3-6,.53-10.41,5.4-11.11,1.6-.7,1.15,0,4.22-.75-.13-1.1-.1-.89-.17-2a1,1,0,0,1-.3.05c-2.35.67-4.47,1.27-5.39,1.47-3.69.89-4.88,7.09-3.66,16l.16-.11C2.19,224.12,2.09,222.92,2.06,221.76Z"/><path class="cls-3" d="M2.85,229.15h0c-.09-.46-.17-.9-.24-1.36C2.69,228.25,2.77,228.69,2.85,229.15Z"/><path class="cls-3" d="M3,230.26a11.13,11.13,0,0,1-.18-1.11h0C2.9,229.52,3,229.88,3,230.26Z"/><path class="cls-3" d="M2.62,227.79a6.47,6.47,0,0,1-.09-.81c-.08-.49-.15-1-.2-1.49h0s0-.07,0-.11l-.16.11c.16,1.16.38,2.44.61,3.7l.08,0C2.77,228.69,2.69,228.25,2.62,227.79Z"/><path class="cls-4" d="M2.62,227.79c.07.46.15.9.24,1.36,3.49-1.55,6.52-4.11,10.43-5.37-.15-1.1-.27-2.24-.36-3.33-3.4,1.66-6.86,3.23-10.28,4.9a1.48,1.48,0,0,1-.32.14c0,.47.12,1,.2,1.49A6.47,6.47,0,0,0,2.62,227.79Z"/><path class="cls-2" d="M18,241a67.09,67.09,0,0,1-4.69-17.17C9.38,225,6.35,227.6,2.86,229.15A11.13,11.13,0,0,0,3,230.26c-.08-.38-.14-.74-.19-1.11l-.08,0c.39,2,.86,4.06,1.47,6.25.11.44,7.61-2.47,9-2.9,1.75,4.39,6.22,14.61,9.25,18.8A81.61,81.61,0,0,1,18,241Z"/><path class="cls-3" d="M2.53,227c-.08-.49-.15-1-.2-1.49h0C2.38,226,2.45,226.49,2.53,227Z"/><path class="cls-2" d="M233.17,198.25c-10.94-1.05-24-1.34-33.79-1.37-6.3-.26-12.6-.43-18.86-.43a430.76,430.76,0,0,0-57.83,3.92,46.19,46.19,0,0,1,.64,4.72c.16.68.31,1.41.47,2.14v0c10.21-1,31.57-2.92,47.28-3.28,2.95.06,5.91.18,8.87.34-1,.09-2.15.18-3.34.25-16.17.77-40.45,2.76-52.36,4.5a12.38,12.38,0,0,0,.46,1.34.15.15,0,0,0,.06,0l0,0a2.56,2.56,0,0,0,.11.24v0c2.15-.29,4.32-.62,6.51-.89l0,0c.4-.06.81-.07,1.22-.13l0,0c6.62-.83,13.29-1.49,20-2l-1,0c10-.77,20.07-1.24,30.11-1.34h-.06a12.24,12.24,0,0,1,1.85,0c4,0,8,0,12.07.12,11.69.2,23.34.85,34.78,2,1.56.23,3.15.43,4.74.64a6.47,6.47,0,0,1,.65-1.56c-24.6-1.75-38.41-2.49-47.82-2.68l-6.7-.45h.07c3.07-.22,6.42-.34,10.48-.42l5.11,0c9.13,0,21.4.49,39.59,1.71a2.52,2.52,0,0,1,.1-.46,60.67,60.67,0,0,1,.8-6.37h0l-.81-.11Z"/><path class="cls-2" d="M299.86,168c0,.16,0,.36,0,.52.21,3.61.21,9.61-2.33,21.92a202,202,0,0,1-6,25.16c-4.14,13.43-8.24,26-12.23,36.23-3.54,9-7,16.18-10.5,20.52,4.25-5.27,8.89-14.9,13.18-26.27,5.42-12.11,17.1-40.61,20.15-62.18a70.44,70.44,0,0,1,11.1,5.31c.21-1.25.36-2.51.54-3.72a3.51,3.51,0,0,0,0-.56c.08-.5.15-1,.22-1.54,0-.27.07-.57.11-.83,0-.65.12-1.3.19-1.93s.12-1,.17-1.43,0-.64,0-.93c0-.46.09-.95.13-1.43,0-.24.05-.48.07-.73.06-.7.1-1.41.12-2.11v-.07C309.55,172,304.65,170.42,299.86,168Z"/><path class="cls-2" d="M284.87,159.76c-5.09,9.1-11,23.93-16.18,42.49.4.1.79.14,1.16.24A182.69,182.69,0,0,1,284.87,159.76Z"/><path class="cls-3" d="M333.26,184.51h0c0-.17,0-.35,0-.55C333.27,184.16,333.27,184.34,333.26,184.51Z"/><path class="cls-4" d="M346.63,196.55h0c-.87-6.47-3-11.72-4.54-12.11l-2.83-.73c-1.68-.44-3.81-1-6-1.55q0,.9,0,1.8h0C341.73,185.16,343.93,186.62,346.63,196.55Z"/><path class="cls-4" d="M315,166.11l0-.78c-.18-1.85-.81-6.33-.68-6.3-.49-2.3-1.16-3.7-1.91-4.37h0a1.28,1.28,0,0,0-.38-.26h0a1,1,0,0,0-.36-.15l-14-3.59a5.32,5.32,0,0,1,.67,1.69C303.64,153.65,313.35,152.77,315,166.11Z"/><path class="cls-4" d="M317.1,166.85a.78.78,0,0,1,0,.13c4.26,1.33,11.06.19,13.89,11.37h0c-.71-3.13-2.58-10.31-4.05-10.67l-9.89-2.54C317.1,166,317.11,166,317.1,166.85Z"/><path class="cls-4" d="M354.2,207.89c-.94-.24-3.06-.83-5.41-1.47l-.27-.08c-.1,1-.06.89-.2,2,3.07.72,2.62,0,4.22.73,4.85.7,5.12,5.14,5.41,11.13,0,1.13-.14,2.33-.24,3.59a.55.55,0,0,1,.14.08C359.08,215,357.87,208.74,354.2,207.89Z"/><path class="cls-2" d="M357.29,226.81c-.11.6-.22,1.2-.31,1.87.1-.67.2-1.27.31-1.87a62.67,62.67,0,0,0-10.53-4.87,69.68,69.68,0,0,1-1.82,8.95,71.83,71.83,0,0,1-2.91,8.48,79.47,79.47,0,0,1-4.54,10.35c3-4.19,7.53-14.38,9.27-18.79,1.42.46,8.87,3.37,9,2.93.66-2.44,1.21-4.81,1.6-7A.12.12,0,0,0,357.29,226.81Z"/><path class="cls-2" d="M316.29,181.31A275.18,275.18,0,0,1,309,220.05a273.32,273.32,0,0,1-13.47,40.17c3.71-6,19.54-48.91,21.56-62.74,2.34,1,10.06,4.7,12.38,5.7a141.54,141.54,0,0,0,1.65-16.92A133.85,133.85,0,0,1,316.29,181.31Z"/><path class="cls-4" d="M299.9,164.85c0,1,0,2.05,0,3.14,4.79,2.43,9.69,4,15,5.93.11-1.7.18-3.29.2-4.74a2.14,2.14,0,0,1-.34-.09C309.83,167.45,305,165.58,299.9,164.85Z"/><path class="cls-4" d="M346.71,199.81a1.24,1.24,0,0,1-.4-.1c-4.41-1.53-8.82-3.16-13.55-4.73l-.16-.06c0,.11,0,.19,0,.31-.11,1-.18,1.93-.31,2.9,4.6,2.08,9.72,3.07,14.37,5.05C346.68,201.76,346.71,200.58,346.71,199.81Z"/><path class="cls-2" d="M332.25,198.13c-.38,3.17-.87,6.11-1.54,9.9a90.33,90.33,0,0,1-2.7,14.42c-.17.7-.33,1.41-.53,2.1a143.81,143.81,0,0,1-4.43,14.3c-1.62,5-3.41,9.94-5.29,14.48,7.11-12.94,11.84-32.73,14.48-43.17,2.27,1.4,13.55,4.71,13.68,4.75.23-2.27.54-7.37.67-11.21,0-.19,0-.34,0-.52C342,201.2,336.85,200.21,332.25,198.13Z"/><path class="cls-4" d="M357.37,223.78c-.34-.17-.65-.33-1-.46-3.1-1.52-6.24-2.95-9.34-4.45-.08,1-.2,2-.31,3.07a62.67,62.67,0,0,1,10.53,4.87,3.58,3.58,0,0,0,.08-.59c0-.31.07-.55.11-.8.07-.54.15-1,.21-1.55Z"/><path class="cls-4" d="M331.14,181.82c-.4.13-10.06-2.67-14.53-3.9-.06,1.11-.19,2.24-.32,3.39a133.85,133.85,0,0,0,14.8,4.95C331.15,184.72,331.17,183.21,331.14,181.82Z"/><path d="M354.72,207.77l-5.41-1.43c-.21-.07-.42-.14-.68-.21q.21-3.3.12-6.32c-.24-9.19-2.37-14.52-6.15-15.51l-2.81-.71c-1.84-.46-4.22-1.05-6.59-1.69-.34-8-2.1-13.41-5.72-14.37-1.68-.42-6.16-1.55-10.55-2.68-.49-6.43-2.1-10-4.75-10.73l-17.46-4.46a3.65,3.65,0,0,0-.93-.12c-8,0-19.4,26.76-27.12,54.15-1.25-.25-2.48-.49-3.75-.78-.21-1.17-.47-2.36-.67-3.45-.38-2.29-163.79-2.77-164.5,1.62-.18,1.08-.46,2.22-.67,3.44-1.25.24-2.5.49-3.74.78-7.71-27.39-19.18-54.17-27.15-54.17a3.3,3.3,0,0,0-.89.12l-17.48,4.47c-2.67.68-4.26,4.29-4.76,10.71l-10.52,2.72c-3.64.91-5.4,6.37-5.75,14.37-2.37.59-4.73,1.18-6.56,1.67l-2.83.72c-3.78,1-5.89,6.33-6.15,15.52-.06,2,0,4.09.1,6.31a4.94,4.94,0,0,0-.69.17c-2.34.63-4.47,1.24-5.38,1.47-6.3,1.71-6.49,15.84-3,28.5,3.66,13.4,10.33,23.18,15.88,23.18a4.07,4.07,0,0,0,1.21-.18c.8-.19,3.43-.91,6.1-1.64,4.39,8.14,9.08,13.12,13,13.12a7.87,7.87,0,0,0,1.19-.12l8.91-2.31c4.06,7.15,8.19,11.71,11.86,11.71a4,4,0,0,0,1.07-.15c1.36-.35,6.56-1.67,11.07-2.84,2.68,3.8,5.26,6,7.54,6a6.84,6.84,0,0,0,.9-.08l18.6-4.79-.08-.17c3.16-2,4.4-9.17,3.67-21.38a235,235,0,0,0-5.74-36.94,9.46,9.46,0,0,0,2.74,1.25c.94.31,1.88.5,2.63.69h.07a6,6,0,0,0,2.72-.38,4.45,4.45,0,0,1,1.72-.29,2.11,2.11,0,0,0,1.09,1.37,4.06,4.06,0,0,0,1.63.57,2.22,2.22,0,0,0,2.24-1.42c1.27-.19,4,2.89,5.67-.83,0,0,0-.06,0-.06h.16c2.9.56,3.46-.36,4.9-2.8.73-1.21,2.46-3.17,3-4.86a404.15,404.15,0,0,1,58.3-3.66c12.69,0,28.5.06,41,1.14,2.87.36,5.74.7,8.57,1.11.67,1.67,2.3,3.49,3,4.69,1.08,1.85,1.67,2.81,3.14,2.95a6.79,6.79,0,0,0,1.93-.19c1.72,3.85,4.43.7,5.7.92a2.19,2.19,0,0,0,2.25,1.4,2.27,2.27,0,0,0,.43-.05,9.27,9.27,0,0,0,1.11-.42,2.18,2.18,0,0,0,1.18-1.43c1.34-.2,2.87,1,4.49.62.76-.15,1.72-.39,2.65-.66a10,10,0,0,0,2.74-1.24,240.3,240.3,0,0,0-5.77,36.9c-.71,12.2.54,19.39,3.7,21.38l-.08.21,18.6,4.74a3.1,3.1,0,0,0,.92.13c2.26,0,4.84-2.21,7.5-6l11.11,2.84a4.79,4.79,0,0,0,1.07.1c3.63,0,7.8-4.55,11.84-11.66l8.93,2.26a4.12,4.12,0,0,0,1.16.17c3.91,0,8.59-5,13-13.16,2.7.73,5.31,1.44,6.12,1.68a6.08,6.08,0,0,0,1.22.14c5.53,0,12.21-9.74,15.85-23.18C361.23,223.6,361,209.52,354.72,207.77Zm-258-3a13.29,13.29,0,0,0-.08,2.95l-.13-1c-.1.91-.42,2.45-.65,4.16-2.24.39-4.46.81-6.67,1.29-3.09.64-6.14,1.37-9.16,2.06a2.92,2.92,0,0,0-.11-.32c-.13-.47-.26-.94-.39-1.36a15.05,15.05,0,0,1,.06-3.86C85.27,207.28,91,206,96.73,204.81Zm.09,4,0,.12-.08-.69C96.75,208.44,96.77,208.66,96.82,208.84Zm-5.5-5-1.19.28a181.28,181.28,0,0,0-15-42.73C80.22,170.48,86.12,185.27,91.32,203.82ZM45,167c.18-1.85.8-6.36.68-6.31.47-2.32,1.17-3.73,1.89-4.39h0A2.35,2.35,0,0,1,48,156h0a1.3,1.3,0,0,1,.38-.15l14-3.58a5,5,0,0,0-.68,1.68c-5.28,1.32-14.95.44-16.65,13.75ZM29,180c.73-3.15,2.58-10.33,4-10.71l9.89-2.53c0,.89,0,.89,0,1.74,0,.05,0,.09,0,.14-4.25,1.29-11,.16-13.88,11.36Zm-1.64,16.3c0,.07,0,.14,0,.18S27.34,196.37,27.37,196.25Zm-14,1.92c.88-6.52,3-11.76,4.54-12.16l2.83-.73c1.68-.42,3.82-1,6-1.5,0,.57,0,1.15,0,1.78,0,.18,0,.35,0,.56h0c0,.14,0,.31,0,.48-.11,0-.06-.25,0-.48s0-.38,0-.56h0c-8.46,1.17-10.64,2.67-13.36,12.61Zm-.11,34.37c-1.41.43-8.91,3.34-9,2.9-3.82-14-3.38-24.79,1.58-26,.92-.2,3-.8,5.39-1.47a1,1,0,0,0,.3-.05c.07,1.06,0,.85.17,2-3.07.72-2.62,0-4.22.75-4.87.7-5.1,5.12-5.4,11.11a54.13,54.13,0,0,0,1,8.5c-.31-1.65-.55-3.28-.71-4.77a1.48,1.48,0,0,0,.32-.14c3.42-1.67,6.88-3.24,10.28-4.9a67.08,67.08,0,0,0,2.13,12.06A69.36,69.36,0,0,0,18,241a81.61,81.61,0,0,0,4.53,10.39C19.48,247.15,15,236.93,13.26,232.54Zm14.51-20.76c-2.3,1.39-6.59,2.28-12.81,4.9l-.51-2.18c-.33-3.22-1.16-10.29-1.16-13.11l.4-.06c4.42-1.53,8.82-3.16,13.57-4.78l.14-.06c0,.14,0,.28.05.37.42,4.38,1,7.9,1.82,12.78A91.58,91.58,0,0,0,32,224.09c.17.69.32,1.39.5,2.08A148.1,148.1,0,0,0,37,240.43c1.63,5.06,3.4,10,5.28,14.51h0C35.13,242,30.38,222.18,27.77,211.78Zm15.17-12.71c-2.36,1-10,4.72-12.37,5.73a127.19,127.19,0,0,1-1.7-21.37c.39.09,10.07-2.71,14.5-3.89A268.35,268.35,0,0,0,51,221.66,279.37,279.37,0,0,0,64.48,261.8C60.8,255.92,45,212.9,42.94,199.07ZM78,247.65C72.65,235.58,60.92,207,57.92,185.51a68.75,68.75,0,0,0-11.13,5.31c-.18-1.29-.36-2.51-.51-3.76,0-.16-.06-.37-.08-.53-.06-.54-.13-1-.2-1.57,0-.28,0-.56-.09-.84-.08-.65-.13-1.26-.2-1.85s-.1-1-.15-1.52c0-.29-.06-.57-.09-.85,0-.51-.08-1-.12-1.48,0-.23-.05-.5-.07-.72,0-.72-.09-1.43-.14-2.13-.09-1.73-.16-3.33-.18-4.78a1.21,1.21,0,0,0,.34-.09c4.89-1.63,9.71-3.51,14.81-4.28,0,1.2,0,2.41,0,3.71-.23,3.56-.22,9.57,2.34,21.88a201.41,201.41,0,0,0,6,25.15c4.17,13.43,8.24,26,12.25,36.22,3.54,9,7,16.23,10.47,20.53C87,268.66,82.34,259.06,78,247.65Zm14.79-31.16c-3.66.81-7.32,1.67-11,2.55a7.17,7.17,0,0,1-.67-.91c3-.85,5.91-1.72,8.85-2.45,1.83-.5,3.68-1,5.52-1.37a13.42,13.42,0,0,0,.07,1.58,10.76,10.76,0,0,1-1.1.23h0c-.56.14-1.12.28-1.68.38Zm8.26,39.91c.18,3,.23,5.59.17,7.79-.57-7.22-2-14.6-3.26-21.57-.93-4.79-1.73-9.32-2.44-13.65-.85-3.74-1.6-7.18-2.3-10.46.58-.11,1.16-.24,1.75-.34C98.32,232.35,100.46,245.73,101.09,256.4Zm128.57-59.27a3.11,3.11,0,0,1,.43.08l-.46-.06Zm7.65,1.69a60.67,60.67,0,0,0-.8,6.37,2.52,2.52,0,0,0-.1.46c-18.19-1.22-30.46-1.68-39.59-1.71l-5.11,0c-4.06.08-7.41.2-10.48.42h-.07l6.7.45c9.41.19,23.22.93,47.82,2.68a6.47,6.47,0,0,0-.65,1.56c-1.59-.21-3.18-.41-4.74-.64-11.44-1.12-23.09-1.77-34.78-2-4-.1-8-.14-12.07-.12a12.24,12.24,0,0,0-1.85,0h.06c-10,.1-20.09.57-30.11,1.34l1,0c-6.73.54-13.4,1.2-20,2l0,0c-.41.06-.82.07-1.22.13l0,0c-2.19.27-4.36.6-6.51.89v0a2.56,2.56,0,0,1-.11-.24l0,0a.15.15,0,0,1-.06,0,12.38,12.38,0,0,1-.46-1.34c11.91-1.74,36.19-3.73,52.36-4.5,1.19-.07,2.29-.16,3.34-.25-3-.16-5.92-.28-8.87-.34-15.71.36-37.07,2.26-47.28,3.28v0c-.16-.73-.31-1.46-.47-2.14a46.19,46.19,0,0,0-.64-4.72,430.76,430.76,0,0,1,57.83-3.92c6.26,0,12.56.17,18.86.43,9.74,0,22.85.32,33.79,1.37l3.33.45.81.11Zm95.95-14.31h0c0-.17,0-.35,0-.55q0-.9,0-1.8c2.18.58,4.31,1.11,6,1.55l2.83.73c1.55.39,3.67,5.64,4.54,12.11h0c-2.7-9.93-4.9-11.39-13.36-12.59h0c0,.2,0,.38,0,.55s.1.49,0,.48Zm-.63,10.16a.14.14,0,0,1,0,.17A.65.65,0,0,1,332.63,194.67Zm-5.68-27c1.47.36,3.34,7.54,4.05,10.67h0c-2.83-11.18-9.63-10-13.89-11.37a.78.78,0,0,0,0-.13c0-.86,0-.88,0-1.72Zm-15.28-13.43a1,1,0,0,1,.36.15h0a1.28,1.28,0,0,1,.38.26h0c.75.67,1.42,2.07,1.91,4.37-.13,0,.5,4.45.68,6.3l0,.78c-1.68-13.34-11.39-12.46-16.65-13.77a5.32,5.32,0,0,0-.67-1.69Zm-26.8,5.52a182.69,182.69,0,0,0-15,42.73c-.37-.1-.76-.14-1.16-.24C273.88,183.69,279.78,168.86,284.87,159.76Zm-4.48,47.31a14.69,14.69,0,0,1,.08,3.86,11.94,11.94,0,0,1-.42,1.36,2.19,2.19,0,0,1-.06.33c-3.05-.69-6.09-1.43-9.16-2.06-2.24-.46-4.48-.86-6.68-1.25-.27-1.71-.57-3.3-.65-4.16l-.15,1a12,12,0,0,0-.08-3C269.06,204.38,274.75,205.67,280.39,207.07Zm-17.11-.41-.1.68a.31.31,0,0,0,0-.07C263.21,207.05,263.25,206.88,263.28,206.66Zm-4.47,57.51c0,.88.11,1.68.15,2.41C258.92,265.85,258.85,265.05,258.81,264.17Zm5.64-36.81c-.72,4.37-1.51,8.9-2.43,13.64-1.24,7-2.73,14.35-3.28,21.62-.06-2.24,0-4.84.19-7.79.62-10.7,2.77-24,6.05-38.22.61.14,1.18.23,1.74.37C266,220.25,265.26,223.68,264.45,227.36ZM267.14,215c-.54-.09-1.14-.21-1.69-.33,0,0,0-.07,0-.13-.37-.09-.73-.18-1.09-.24a11.76,11.76,0,0,0,.06-1.59c1.85.43,3.68.88,5.52,1.34,3,.77,5.86,1.65,8.85,2.45a10.15,10.15,0,0,1-.67,1c-3.66-.92-7.3-1.76-11-2.56A.41.41,0,0,1,267.14,215ZM282,246.07c-4.29,11.37-8.93,21-13.18,26.27,3.48-4.34,7-11.51,10.5-20.52,4-10.23,8.09-22.8,12.23-36.23a202,202,0,0,0,6-25.16c2.54-12.31,2.54-18.31,2.33-21.92,0-1.26.06-2.51,0-3.66,5.08.73,9.93,2.6,14.8,4.24a2.14,2.14,0,0,0,.34.09c0,1.47-.09,3.06-.2,4.81,0,.7-.06,1.41-.12,2.11,0,.25,0,.49-.07.73,0,.48-.09,1-.13,1.43,0,.29,0,.63,0,.93s-.11.94-.17,1.43-.15,1.28-.19,1.93c0,.26-.07.56-.11.83-.07.49-.14,1-.22,1.54a3.51,3.51,0,0,1,0,.56c-.18,1.21-.33,2.47-.54,3.72a70.44,70.44,0,0,0-11.1-5.31C299.06,205.46,287.38,234,282,246.07Zm26.16-31c-.37,1.5-.74,3-1.14,4.54-.59,2.21-1.17,4.41-1.75,6.55C306.21,222.38,307.17,218.64,308.12,215Zm-12.62,45.2A273.32,273.32,0,0,0,309,220.05a266.39,266.39,0,0,0,7.64-42.13c4.47,1.23,14.13,4,14.53,3.9a129.85,129.85,0,0,1-1.7,21.36c-2.32-1-10-4.74-12.38-5.7C315,211.31,299.21,254.27,295.5,260.22Zm36.74-50.06c-2.64,10.44-7.37,30.23-14.48,43.17,1.88-4.54,3.67-9.45,5.29-14.48a143.81,143.81,0,0,0,4.43-14.3c.2-.69.36-1.4.53-2.1a90.33,90.33,0,0,0,2.7-14.42c.89-4.91,1.42-8.44,1.85-12.8,0-.12,0-.2,0-.31l.16.06c4.73,1.57,9.14,3.2,13.55,4.73a1.24,1.24,0,0,0,.4.1c0,2.83-.45,11.89-.79,15.1C345.79,214.87,334.51,211.56,332.24,210.16Zm23.53,23.7c-.14.44-7.59-2.47-9-2.93-1.74,4.41-6.26,14.6-9.27,18.79A79.47,79.47,0,0,0,342,239.37a71.83,71.83,0,0,0,2.91-8.48,62.16,62.16,0,0,0,2.13-12c3.4,1.67,6.87,3.2,10.3,4.91l.32.09c-.18,1.54-.4,3.12-.71,4.81a59,59,0,0,0,1-8.49c-.29-6-.56-10.43-5.41-11.13-1.6-.71-1.15,0-4.22-.73.14-1.1.1-.94.2-2l.27.08c2.35.64,4.47,1.23,5.41,1.47C359.12,209.06,359.59,219.86,355.77,233.86Z"/><path class="cls-4" d="M178.84,158C127.7,158,86.1,199.5,86.1,250.5S127.7,343,178.84,343s92.75-41.49,92.75-92.48S230,158,178.84,158Zm0,167.44A74.93,74.93,0,1,1,254,250.5,75,75,0,0,1,178.84,325.45Z"/><path d="M178.84,152.75c-54,0-98,43.85-98,97.75s44,97.74,98,97.74,98-43.85,98-97.74S232.89,152.75,178.84,152.75Zm0,190.23C127.7,343,86.1,301.49,86.1,250.5S127.7,158,178.84,158s92.75,41.49,92.75,92.49S230,343,178.84,343Z"/><path d="M178.84,175.6A74.93,74.93,0,1,0,254,250.5,75,75,0,0,0,178.84,175.6Zm0,98.15a23.23,23.23,0,1,1,23.32-23.25A23.25,23.25,0,0,1,178.84,273.75Z"/><path class="cls-5" d="M178.84,227.3a23.23,23.23,0,1,0,23.32,23.2A23.24,23.24,0,0,0,178.84,227.3Zm0,41.45a18.23,18.23,0,1,1,18.3-18.25A18.29,18.29,0,0,1,178.84,268.75Z"/><path class="cls-2" d="M178.84,236.24a14.28,14.28,0,1,0,14.35,14.26A14.33,14.33,0,0,0,178.84,236.24Z"/><path d="M178.84,232.29a18.23,18.23,0,1,0,18.3,18.21A18.27,18.27,0,0,0,178.84,232.29Zm0,32.51a14.28,14.28,0,1,1,14.35-14.3A14.35,14.35,0,0,1,178.84,264.8Z"/><text class="cls-6" transform="translate(139.12 280.61) rotate(-109.78)">W</text><text class="cls-6" transform="translate(130.57 255.96) rotate(-84.65)">A</text><text class="cls-6" transform="translate(131.83 238.44) rotate(-63.93)">R</text><text class="cls-6" transform="matrix(0.74, -0.68, 0.68, 0.74, 139.46, 222.14)">R</text><text class="cls-6" transform="translate(153.17 210.18) rotate(-26.17)">I</text><text class="cls-6" transform="translate(160.96 205.36) rotate(-9.72)">O</text><text class="cls-6" transform="translate(179.11 201.99) rotate(12.01)">R</text><text class="cls-6" transform="matrix(0.9, 0.43, -0.43, 0.9, 196.93, 206.49)"> </text><text class="cls-6" transform="translate(201.55 207.65) rotate(39.5)">R</text><text class="cls-6" transform="translate(215.56 218.95) rotate(60.35)">E</text><text class="cls-6" transform="translate(223.91 233.42) rotate(78.76)">L</text><text class="cls-6" transform="translate(227.36 248.51) rotate(99.36)">A</text><text class="cls-6" transform="translate(225.15 265.37) rotate(119.92)">X</text><path d="M263.58,59.59c4.29-6,8.7-12,14.39-16.49s12.9-7.3,19.94-6c10,1.82,17.77,12.34,17.88,23.11A27.24,27.24,0,0,1,299.53,85c-9.37,3.92-20.56,2-28.95-4.19Z"/><path class="cls-2" d="M280,46.6c-5.69,4.48-10.1,10.51-14.39,16.49l6.09,18.43c8.26,5.54,18.89,7.2,27.86,3.44A27.24,27.24,0,0,0,315.79,60.2a24.78,24.78,0,0,0-2.43-10.27c-3.25-4.78-8-8.35-13.45-9.34C292.87,39.3,285.66,42.12,280,46.6Z"/><path class="cls-7" d="M309.84,56.24c-4.2-5.56-14.43-5.31-21-3-10.36,3.65-17.67,14.54-18.76,28.07l0,.14a30.32,30.32,0,0,0,20.83,6,19.75,19.75,0,0,0,6.52-1.76C308.14,80.69,315.69,64,309.84,56.24Z"/><path class="cls-7" d="M277.84,91.24a21.83,21.83,0,0,0,22.48-1.45,28,28,0,0,0-10-1.48,60.38,60.38,0,0,1,16.41-3,26.92,26.92,0,0,0-20-4.07,10.63,10.63,0,0,1,6.49-7.42,24.28,24.28,0,0,0-22.43,12.47Z"/><path class="cls-8" d="M277.4,71.42c-.34.18-.69.33-1,.52A25.75,25.75,0,0,0,264.31,88.4a40.22,40.22,0,0,1,16.9-8A95.2,95.2,0,0,1,277.4,71.42Z"/><path class="cls-7" d="M283.84,103.56c1.86-.56,3.48-1.1,4.82-1.57,6.47-2.27,7.77-3.42,8.54-4.37a8.07,8.07,0,0,0,1.64-3.38c-1.24.18-2.71,1.38-4.73,1.67-2.27.33-3.29.29-4.27,1.33C288.56,98.62,287.39,102.16,283.84,103.56Z"/><path d="M233.57,159.23c-2.27-10-7-23.44-16.43-30-16.25-11.29-43.78-6.06-43.78-6.06-.72.72-21.46,21-27.94,36.07Z"/><path d="M219.11,159.9c-1.78-9.48-5-20.48-10.68-26.28-11.27-11.47-34.94-11.24-34.94-11.24-.45.67-13.5,22.92-19,37.52Z"/><path d="M217.68,141.86c-.91-2.12-3.38-3.05-4.54-4.8-9.74-4-26.65-9.57-38.45-13.12-1.49,3-4.83,6.46-8.32,14.3,1.67,1.35,13.35,5.84,16,6C188.34,144.71,210.64,143.21,217.68,141.86Z"/><path d="M163.18,36.35c.5-7.66,1-15.58-1.64-22.8S152.41-.06,144.73,0A18.49,18.49,0,0,0,135,3.26,27.31,27.31,0,0,0,123.47,31.2a27.28,27.28,0,0,0,22,20.68Z"/><path class="cls-2" d="M144.16,51.62l15.69-13.77c.49-7.66,1-15.58-1.65-22.8S149.07,1.44,141.4,1.5a15.76,15.76,0,0,0-5,.9c-.49.27-1,.56-1.45.86A27.31,27.31,0,0,0,123.47,31.2,27.34,27.34,0,0,0,144.16,51.62Z"/><path class="cls-7" d="M152.56,46.89C156,31.58,150.73,19,142.84,16.24a15,15,0,0,0-14.37,3.28A15.44,15.44,0,0,0,124,32c1.72,10.56,11.43,19.07,22,20.68Z"/><path class="cls-7" d="M132.28,37.49a11.25,11.25,0,0,1,7.86,3.34,19.15,19.15,0,0,0-14.73,3.55,19.16,19.16,0,0,1,10.89,3.19l-5.44,2.82c1.31-.68,5.72,1.78,6.89,2.41a32.21,32.21,0,0,1,6,4.68c1.64-4.35,8.28-12,6.63-16.79a24,24,0,0,0-1.47-3C144.44,35.48,135.84,36.68,132.28,37.49Z"/><path d="M146.07,93.32c22.48,25.22,57.72,33.33,90.24,26.6,21.42-4.44,41.07-13.84,59.83-24.92-8.37-6.88-12.94-18.07-16.54-28.6-4.27-12.54-8.8-26.15-19.71-33.66-5.33-3.67-11.76-5.52-17-9.36s-9.06-11-6.1-16.73l-7.62,7.91q.09-6.09.16-12.19c-2.1,4.11-6.4,6.71-10.84,8s-9.11,1.46-13.7,2a88.36,88.36,0,0,0-24.37,6.48C169,23.7,155.93,31.49,148.63,41.73a50.91,50.91,0,0,1-14.85,14c-.64.39-4.5,2.19-8.52,3.85C130.61,71.76,137.21,83.4,146.07,93.32Z"/><path class="cls-2" d="M268.59,41.58a34.48,34.48,0,0,0-8.7-8.84c-5.33-3.67-11.76-5.52-17-9.36s-9.06-11-6.1-16.73l-7.62,7.91q.09-6.09.16-12.19c-2.1,4.11-6.4,6.71-10.84,8s-9.11,1.46-13.7,2a88.36,88.36,0,0,0-24.37,6.48,97.85,97.85,0,0,0-20.74,11.81c7,17.84,19.32,37.11,52,43.4C244.69,80.39,266.34,62.42,268.59,41.58Z"/><path class="cls-7" d="M206.76,102.61c1.64-7.29,5.71-19.88,16.59-30.4,4.47-4.32,11.12-10.75,21.49-12,1.88-.22,16.22-1.71,22.27,7.24,4.17,6.17,2.12,14,1.37,17.1-6.12,25.29-31.41,35-31.41,35Z"/><path class="cls-7" d="M184.67,90.19c.37-2.07,4.59-26.75-3.83-38.34a17.38,17.38,0,0,0-8-6.61c-2.91-1.08-7.66-1.8-11,0C150.4,51.46,156.67,87.08,157,87c0,0,0-.1,0-.29Z"/><path class="cls-2" d="M240.93,112.39l-.11,0S240.86,112.41,240.93,112.39Z"/><path class="cls-2" d="M288.83,86.69c-3.83-.28-15.12,1.71-24.18,9.13-5.79,4.74-14.07,12.28-15.31,12.68,1.34-.2,7.91,2.53,22-.37A272.72,272.72,0,0,0,296.14,95,37.11,37.11,0,0,1,288.83,86.69Z"/><path class="cls-2" d="M157.8,70.35s-8-13.86-23.07-15.22c-.31.2-.62.42-.95.62a133.94,133.94,0,0,1-13.64,5.83h0c0,6.8,8.93,16.89,25.17,17.54Z"/><path d="M206.78,108.86C216.24,87.1,226.69,67,249.23,65.77c14.12-.78,20.25,8.61,15.35,21-5.7,14.47-12.56,21.61-24.25,28.75L203,117.69Z"/><path class="cls-4" d="M206.85,107.79c8.32-19.78,19.15-38,39-39.15,12.42-.71,17.81,7.83,13.51,19.12-5,13.16-11.06,19.64-21.35,26.13l-32.81,1.94Z"/><path d="M180.09,96.52c1.56-6,2-16.69,1.92-19.48-.26-6.58-.75-13.87-3-20.13a20,20,0,0,0-3.64-6.79,9.68,9.68,0,0,0-7.08-3.41A9.91,9.91,0,0,0,161,50.54a30.84,30.84,0,0,0-2.65,4.55c-1.43,2.53-2.69,9.76-2,18.14Z"/><path class="cls-4" d="M158.22,73.69c-1.65-7.41,1-24.08,11.26-21.92,4.13.87,7.58,3.84,9.56,8.4,4.66,10.72,5.12,26.64,1.17,36.9C174.24,112.54,158.22,73.69,158.22,73.69Z"/><path class="cls-9" d="M183.59,107.56c-1.68-.62-.48,6.42.13,7.3s2-1.35,6.7-4C193.46,109.12,183.59,107.56,183.59,107.56Z"/><path class="cls-7" d="M237.6,145.37a20,20,0,0,0-7-4.78c-4.74.21-10.42,4.64-13.94,9.72-5.29,2.47-22-1.79-27.66-1.28-4.76.43-10.25,4.43-12.45,9.29-.14.32-.86,4.8-.61,5.53,3.76,5,10.75,6.64,16.43,7.9A101.87,101.87,0,0,0,203,173.24a124.64,124.64,0,0,0,18.76-4.2c3.87-1.12,7.83-2.19,11.23-4.34s6.29-5.43,7.13-9.37A11.79,11.79,0,0,0,237.6,145.37Z"/><path class="cls-10" d="M230.57,140.59c-4.74.21-10.42,4.64-13.94,9.72a6.21,6.21,0,0,1-.73.26c6.6-.67,18.69-.92,24.42,3.59a11.8,11.8,0,0,0-2.72-8.79A20,20,0,0,0,230.57,140.59Z"/><path class="cls-7" d="M115.36,62.18s.65,11.87,2.3,16.38,4.51,1,4.51,1l-6.94-17.95Z"/><circle class="cls-7" cx="226.7" cy="98.59" r="11.65" transform="translate(90.49 304.89) rotate(-80.07)"/><path class="cls-2" d="M234.88,98.59a8.18,8.18,0,1,1-8.18-8.18A8.17,8.17,0,0,1,234.88,98.59Z"/><path class="cls-11" d="M237.3,103.41c-2.45-3.39-6.32-4.9-9.23-3.37-3.07,1.61-4,6-2.21,10.16.28,0,.56,0,.84,0A11.65,11.65,0,0,0,237.3,103.41Z"/><path class="cls-4" d="M222.14,92.27c0,2.11-1.24,3.83-2.76,3.83s-2.77-1.72-2.77-3.83,1.24-3.82,2.77-3.82S222.14,90.16,222.14,92.27Z"/><path class="cls-7" d="M180.73,78.16a11.65,11.65,0,1,1-11.65-11.65A11.65,11.65,0,0,1,180.73,78.16Z"/><path class="cls-2" d="M177.25,78.16A8.18,8.18,0,1,1,169.08,70,8.17,8.17,0,0,1,177.25,78.16Z"/><path class="cls-11" d="M179.67,83c-2.44-3.39-6.32-4.9-9.22-3.37-3.07,1.61-4,6-2.22,10.16.28,0,.56,0,.85,0A11.62,11.62,0,0,0,179.67,83Z"/><path class="cls-4" d="M166.52,69.84c0,2.12-1.24,3.83-2.77,3.83S161,72,161,69.84,162.22,66,163.75,66,166.52,67.73,166.52,69.84Z"/><path class="cls-7" d="M291.78,101.7c2.94-2.37,5.35-5.45,6.06-7.46-2,1-4.42-2.42-5.89-4.14a31,31,0,0,0-5.1.54c-8.65,1.65-16.39,6.3-24,10.73s-15.7,8.09-24.35,9.79c-24.66,4.83-38.82-3-53.53-8.46-9.61-3.54-14.42-19.93-23.14-28.41C153.85,66.55,143,59,131.21,57a85,85,0,0,1-11.35,4.18,13.33,13.33,0,0,0,.84,6,19.25,19.25,0,0,1-5.43-5.41l3.06,13.66L113.56,71c6.76,25.23,24.58,47.11,47.53,59.58s50.65,15.57,76,9.3,48.2-21.67,64.22-42.3c-.85-.43-1.65-.91-2.44-1.41A26.77,26.77,0,0,1,291.78,101.7Z"/><path class="cls-7" d="M245.51,111.69c15.68-5.41,22-12.73,33.34-18.66a121.85,121.85,0,0,0-16,8.34c-7.62,4.42-15.7,8.09-24.35,9.79a69.31,69.31,0,0,1-30-.26c-.61.17-14.63,0-14.63,0C197.88,113.82,226.47,118.25,245.51,111.69Z"/><path class="cls-2" d="M176.87,128.46c-13-39.08-31.85-35.67-40.14-39.88A48.26,48.26,0,0,1,120.64,76c-3.7-4.39-4-9.28-4.79-11.56q1.25,5.53,2.48,11.07a2.39,2.39,0,0,0-.23-.22c.08.34.16.69.23,1l-4.44-4.12c7,24.75,24.6,46.17,47.2,58.45,22.95,12.47,50.65,15.57,76,9.3a117.13,117.13,0,0,0,55.54-32.35C270.76,126.9,222.15,145.39,176.87,128.46Z"/><path class="cls-2" d="M176.87,128.46c-13-39.08-31.85-35.67-40.14-39.88a51.5,51.5,0,0,1-9.5-6.08c10,24.87,26.5,48.19,57.57,53.95,17.65,3.28,34.78,1.27,49.62-3C216.19,136.45,196.23,135.7,176.87,128.46Z"/><path d="M185.8,16.75a133.67,133.67,0,0,0,2.93,14c1.09,4.09,3.12,8.82,7.3,9.5a67.54,67.54,0,0,1,2.2-26.9A89.19,89.19,0,0,0,185.8,16.75Z"/><path d="M237.59,17.32c-1.87-3.4-2.5-7.28-.76-10.67l-7.62,7.91c.06-4.06,1.16-9.5-.25-13.94-.44,5.33-6,8.46-10.43,9.74a39.32,39.32,0,0,1-5.89,1.16c-.69,3-2.1,6.64-3.11,13.15-.57,3.71-4,28.4-.26,29C214.14,38.87,224.63,26.29,237.59,17.32Z"/><path d="M259.89,32.74c-4.7-3.23-10.25-5.06-15.07-8.08A56.32,56.32,0,0,0,230.1,40.28c-1.83,2.92-3.44,6.46-2.34,9.73A59.54,59.54,0,0,1,262.9,35.13,29.24,29.24,0,0,0,259.89,32.74Z"/><path class="cls-2" d="M171.74,93.74A68.35,68.35,0,0,1,182,86.58c3.38-2,26.4,5.53,27.49,9,1.45,4.65,1.83,11,1.52,12.21a104.65,104.65,0,0,1-25.85,1.33A26.34,26.34,0,0,1,171.74,93.74Z"/><path class="cls-2" d="M185.2,87.55c4,.44,17.56,3.77,24.41,8.65-.05-.21-.11-.42-.17-.62-1.09-3.47-23.94-10.71-27.49-9-7.41,3.55-10.21,7.16-10.21,7.16a36.59,36.59,0,0,1,4,5.39C177.07,96.14,181.87,87.18,185.2,87.55Z"/><path class="cls-2" d="M170.33,126.39c-1.67-7.5-5.84-18-9.09-21C154,98.64,140.68,99.23,138,100.6c-3.47,1.76-6.88,9.53-6.7,13.37.21,4.55,8,8.06,14.28,12.39-9,9.65-11.9,22-8.74,29.42,2.33,5.45,8.91,6.75,14.74,5.69s10.91-5,14.1-10C170.61,143.68,170.87,128.83,170.33,126.39Z"/><path class="cls-7" d="M154.49,110.76a12.2,12.2,0,0,1,5.63-6.29c-7.44-5.74-19.57-5.18-22.15-3.87-3.47,1.76-6.88,9.53-6.7,13.37.12,2.52,2.55,4.72,5.78,6.92a47.54,47.54,0,0,0,5.71.54c2.92.13,6,.09,8.59-1.24a10.38,10.38,0,0,0,2.51-1.83A14.59,14.59,0,0,1,154.49,110.76Z"/><path class="cls-2" d="M145.51,45.71a51.42,51.42,0,0,1-5.63,5.61c2.69.28,10.45,3.44,15,10.32C154.22,54.71,151.14,48.86,145.51,45.71Z"/><path d="M210.34,106c-9,.8-29.93-5-38-12.38-1.49-1.38-1.16,5.9-1.16,5.9s5.78,4.52,10.21,8.41c.93,1.17,1.66,2.5,1.13,3.42-.43.75,3.4,3.49,4.36,2.26,1.53-2,5.85-2.13,11.11-2.13,6.09.17,11.65.62,11.65.62S212.27,105.85,210.34,106Z"/><path class="cls-12" d="M210.34,106c-3.68.33-9.33-.43-15.28-2a73.74,73.74,0,0,1-10.55,9.35c1,.52,2,.78,2.4.22,1.53-2,5.85-2.13,11.11-2.13,6.09.17,11.65.62,11.65.62S212.27,105.85,210.34,106Z"/><path class="cls-2" d="M210.42,106h-.08c-.56,0-1.17.08-1.82.08-9.77,0-28.61-5.51-36.15-12.47a.57.57,0,0,0-.34-.17c-1.09,0-.82,6.08-.82,6.08s5.78,4.52,10.21,8.41c.93,1.17,1.66,2.5,1.13,3.42-.35.61,2.17,2.57,3.61,2.57a.9.9,0,0,0,.75-.31c1.53-2,5.85-2.13,11.11-2.13,6.09.17,11.65.62,11.65.62S212.2,106,210.42,106Zm-1.34,5.15c-1.67-.13-6.21-.44-11.06-.57-5.58,0-10,.18-11.79,2.44h-.07a5,5,0,0,1-2.67-1.54c.41-1.09-.05-2.47-1.37-4.12l-.11-.11c-3.78-3.33-8.61-7.16-9.91-8.18a25,25,0,0,1,.19-4.32C180,101.41,198.4,107,208.52,107c.58,0,1.13,0,1.63,0A13.91,13.91,0,0,1,209.08,111.17Z"/><path class="cls-13" d="M177.21,98.07c1.91,1,3.53,1.71,3.45,2s-1.84,0-3.86-1-3.34-2.63-3.09-2.87S175.27,97.12,177.21,98.07Z"/><path class="cls-14" d="M131.21,57a84.78,84.78,0,0,1-11.65,4.26l.1.4c2.63-1.35,20.56-5.83,41.88,12.36C153.6,66.38,142.83,59,131.21,57Z"/><path class="cls-7" d="M131.29,113.13a8.1,8.1,0,0,0,0,.84c.21,4.48,7.73,8,14,12.2,11.51-3.19,19.41,5.11,15.9-1.63C157,116.53,140.74,111.84,131.29,113.13Z"/><path d="M158.18,141.93a23,23,0,0,1-16.87-10.19,36.73,36.73,0,0,0-4.26,8.75C140.36,143.73,148.37,146.35,158.18,141.93Z"/><path class="cls-2" d="M151.55,161.47a20.63,20.63,0,0,0,10.63-5.78,28.12,28.12,0,0,1-18.51,3.21,12.48,12.48,0,0,1-7.39-4.6,14.42,14.42,0,0,0,.53,1.48C139.14,161.23,145.72,162.53,151.55,161.47Z"/><path d="M233,164.7a17.15,17.15,0,0,0,1.63-1.16c-1.32-5.79-7.31-12.3-18.79-13a9.53,9.53,0,0,1-1.94.38c8.1,2.22,15.53,9.79,14.42,16A25.92,25.92,0,0,0,233,164.7Z"/><path class="cls-7" d="M206.89,159.49C224,158.06,215.8,150.7,189,149c-1.42-.09-3,.9-4.49,2C192.14,152,199.67,155.19,206.89,159.49Z"/><path class="cls-7" d="M165.65,151.44c5.18-7.82,5.22-22.61,4.68-25-.05-.22-.11-.46-.16-.69-1.88,23.78-12.41,28.89-18.33,31.1-3.9,1.47-11.12,2.41-15.11-1.25,0,.07.05.15.08.23,2.33,5.45,8.91,6.75,14.74,5.69S162.38,156.38,165.65,151.44Z"/><path class="cls-2" d="M184.9,168.33a42.8,42.8,0,0,1-9-4.48c3.76,5,10.75,6.64,16.43,7.9A101.87,101.87,0,0,0,203,173.24c2.55-.32,5.44-.84,8.77-1.59C209.07,171.53,202.29,172.78,184.9,168.33Z"/><path d="M194.13,156.38s-4.78,3-5.44,5.28a26.5,26.5,0,0,0,.43,5.51s1.09-4,1.41-5.29C191.16,160.61,194.13,156.38,194.13,156.38Z"/><path d="M187.84,153.24s-6.15,3.4-7.06,5.95a24.61,24.61,0,0,0,.34,6s1.52-4.37,2-5.8C183.93,158,187.84,153.24,187.84,153.24Z"/><path d="M202.72,160.27s-4,2.47-4.54,4.41a22.41,22.41,0,0,0,.36,4.6s.91-3.33,1.17-4.41C200.24,163.8,202.72,160.27,202.72,160.27Z"/><path d="M146.37,117.49a14.67,14.67,0,0,1-.73-5.75s.19-1.17,2.57-5.41l-1.82,11.18S146.37,117.49,146.37,117.49Z"/><path d="M137.37,116.48a19.22,19.22,0,0,1-.51-6.63s.23-1.36,2.79-6.37c0,0,0,0-2.26,13C137.38,116.51,137.38,116.49,137.37,116.48Z"/><path class="cls-15" d="M188.67,125.7a5.87,5.87,0,0,1-5.75-1.73,6,6,0,0,1-1.36-4.73,12.76,12.76,0,0,1-4.84.75c-1.63-.06-4.38-.25-5.38-2.25"/></g></g></g></svg>