<svg xmlns="http://www.w3.org/2000/svg" viewBox="0 0 234.96 348.24"><defs><style>.cls-1{isolation:isolate;}.cls-10,.cls-11,.cls-13,.cls-2,.cls-5{fill:#fff;}.cls-3{fill:#c1c1c1;}.cls-4,.cls-9{fill:#446592;}.cls-5{font-size:30px;font-family:Calistoga-Regular, Calistoga;}.cls-6{fill:#aae0fa;}.cls-7{fill:#9c3d39;}.cls-8{fill:#aa0001;}.cls-9{mix-blend-mode:multiply;}.cls-10{mix-blend-mode:overlay;opacity:0.26;}.cls-11{opacity:0.16;}.cls-12{fill:#fefefe;}.cls-13{opacity:0.27;}.cls-14{fill:none;stroke:#000;stroke-miterlimit:10;}</style></defs><g class="cls-1"><g id="Calque_2" data-name="Calque 2"><g id="Layer_1" data-name="Layer 1"><path class="cls-2" d="M98,158C46.87,158,5.27,199.5,5.27,250.5S46.87,343,98,343s92.75-41.49,92.75-92.48S149.15,158,98,158Zm0,167.44a74.93,74.93,0,1,1,75.17-74.95A75,75,0,0,1,98,325.45Z"/><path d="M98,152.75c-54,0-98,43.85-98,97.75s44,97.74,98,97.74,98-43.85,98-97.74S152.06,152.75,98,152.75ZM98,343C46.87,343,5.27,301.49,5.27,250.5S46.87,158,98,158s92.75,41.49,92.75,92.49S149.15,343,98,343Z"/><path d="M98,175.6a74.93,74.93,0,1,0,75.17,74.9A75,75,0,0,0,98,175.6Zm0,98.15a23.23,23.23,0,1,1,23.32-23.25A23.25,23.25,0,0,1,98,273.75Z"/><path class="cls-3" d="M98,227.3a23.23,23.23,0,1,0,23.32,23.2A23.24,23.24,0,0,0,98,227.3Zm0,41.45a18.23,18.23,0,1,1,18.3-18.25A18.3,18.3,0,0,1,98,268.75Z"/><path class="cls-4" d="M98,236.24a14.28,14.28,0,1,0,14.35,14.26A14.33,14.33,0,0,0,98,236.24Z"/><path d="M98,232.29a18.23,18.23,0,1,0,18.3,18.21A18.28,18.28,0,0,0,98,232.29Zm0,32.51a14.28,14.28,0,1,1,14.35-14.3A14.35,14.35,0,0,1,98,264.8Z"/><text class="cls-5" transform="translate(58.29 280.59) rotate(-109.78)">W</text><text class="cls-5" transform="matrix(0.09, -1, 1, 0.09, 49.73, 255.94)">A</text><text class="cls-5" transform="translate(50.99 238.42) rotate(-63.93)">R</text><text class="cls-5" transform="matrix(0.74, -0.68, 0.68, 0.74, 58.63, 222.11)">R</text><text class="cls-5" transform="translate(72.33 210.16) rotate(-26.17)">I</text><text class="cls-5" transform="matrix(0.99, -0.17, 0.17, 0.99, 80.12, 205.34)">O</text><text class="cls-5" transform="translate(98.27 201.97) rotate(12.01)">R</text><text class="cls-5" transform="matrix(0.9, 0.43, -0.43, 0.9, 116.09, 206.47)"> </text><text class="cls-5" transform="matrix(0.77, 0.64, -0.64, 0.77, 120.71, 207.63)">R</text><text class="cls-5" transform="translate(134.72 218.93) rotate(60.35)">E</text><text class="cls-5" transform="matrix(0.19, 0.98, -0.98, 0.19, 143.07, 233.41)">L</text><text class="cls-5" transform="translate(146.52 248.49) rotate(99.36)">A</text><text class="cls-5" transform="translate(144.31 265.36) rotate(119.92)">X</text><path d="M182.75,59.59c4.29-6,8.7-12,14.39-16.49s12.9-7.3,19.94-6c10,1.82,17.77,12.34,17.88,23.11A27.24,27.24,0,0,1,218.7,85c-9.37,3.92-20.56,2-28.95-4.19Z"/><path class="cls-4" d="M199.14,46.6c-5.69,4.48-10.1,10.51-14.39,16.49l6.09,18.43c8.26,5.54,18.89,7.2,27.86,3.44A27.24,27.24,0,0,0,235,60.2a24.78,24.78,0,0,0-2.43-10.27c-3.25-4.78-8-8.35-13.45-9.34C212,39.3,204.83,42.12,199.14,46.6Z"/><path class="cls-6" d="M229,56.24c-4.2-5.56-14.43-5.31-21-3-10.36,3.65-17.67,14.54-18.77,28.07l0,.14a30.32,30.32,0,0,0,20.83,6,19.75,19.75,0,0,0,6.52-1.76C227.31,80.69,234.86,64,229,56.24Z"/><path class="cls-6" d="M197,91.24a21.83,21.83,0,0,0,22.48-1.45,28,28,0,0,0-10-1.48,60.31,60.31,0,0,1,16.41-3,26.92,26.92,0,0,0-20-4.07,10.62,10.62,0,0,1,6.48-7.42A24.27,24.27,0,0,0,190,86.29Z"/><path class="cls-7" d="M196.57,71.42c-.34.18-.69.33-1,.52A25.75,25.75,0,0,0,183.48,88.4a40.22,40.22,0,0,1,16.9-8A95.2,95.2,0,0,1,196.57,71.42Z"/><path class="cls-6" d="M203,103.56c1.86-.56,3.48-1.1,4.82-1.57,6.46-2.27,7.77-3.42,8.54-4.37A8.19,8.19,0,0,0,218,94.24c-1.24.18-2.71,1.38-4.73,1.67-2.27.33-3.29.29-4.27,1.33C207.72,98.62,206.56,102.16,203,103.56Z"/><path d="M152.74,159.23c-2.27-10-7-23.44-16.43-30-16.25-11.29-43.78-6.06-43.78-6.06-.72.72-21.46,21-27.94,36.07Z"/><path d="M138.28,159.9c-1.78-9.48-5-20.48-10.68-26.28-11.27-11.47-34.94-11.24-34.94-11.24-.46.67-13.5,22.92-19,37.52Z"/><path d="M136.85,141.86c-.91-2.12-3.39-3.05-4.54-4.8-9.74-4-26.65-9.57-38.45-13.12-1.49,3-4.83,6.46-8.32,14.3,1.66,1.35,13.34,5.84,16,6C107.51,144.71,129.81,143.21,136.85,141.86Z"/><path d="M82.35,36.35c.5-7.66,1-15.58-1.64-22.8S71.58-.06,63.9,0a18.49,18.49,0,0,0-9.77,3.26A27.3,27.3,0,0,0,42.64,31.2a27.28,27.28,0,0,0,22,20.68Z"/><path class="cls-4" d="M63.32,51.62,79,37.85c.49-7.66,1-15.58-1.65-22.8S68.24,1.44,60.57,1.5a15.71,15.71,0,0,0-5,.9c-.49.27-1,.56-1.45.86A27.3,27.3,0,0,0,42.64,31.2,27.34,27.34,0,0,0,63.32,51.62Z"/><path class="cls-6" d="M71.73,46.89C75.16,31.58,69.89,19,62,16.24a15,15,0,0,0-14.37,3.28A15.44,15.44,0,0,0,43.15,32c1.72,10.56,11.43,19.07,22,20.68Z"/><path class="cls-6" d="M51.44,37.49a11.25,11.25,0,0,1,7.87,3.34,19.15,19.15,0,0,0-14.73,3.55,19.11,19.11,0,0,1,10.88,3.19L50,50.39c1.31-.68,5.72,1.78,6.89,2.41a32.21,32.21,0,0,1,6,4.68c1.64-4.35,8.28-12,6.63-16.79a24,24,0,0,0-1.47-3C63.61,35.48,55,36.68,51.44,37.49Z"/><path d="M65.23,93.32c22.49,25.22,57.73,33.33,90.25,26.6,21.42-4.44,41.07-13.84,59.83-24.92-8.37-6.88-12.94-18.07-16.54-28.6-4.27-12.54-8.8-26.15-19.71-33.66-5.33-3.67-11.76-5.52-17-9.36S153,12.4,156,6.65l-7.62,7.91q.09-6.09.16-12.19c-2.1,4.11-6.41,6.71-10.84,8s-9.11,1.46-13.7,2a88.52,88.52,0,0,0-24.38,6.48C88.16,23.7,75.1,31.49,67.8,41.73A51,51,0,0,1,53,55.75c-.64.39-4.5,2.19-8.52,3.85C49.78,71.76,56.38,83.4,65.23,93.32Z"/><path class="cls-4" d="M187.76,41.58a34.48,34.48,0,0,0-8.7-8.84c-5.33-3.67-11.76-5.52-17-9.36S153,12.4,156,6.65l-7.62,7.91q.09-6.09.16-12.19c-2.1,4.11-6.41,6.71-10.84,8s-9.11,1.46-13.7,2a88.52,88.52,0,0,0-24.38,6.48A97.79,97.79,0,0,0,78.89,30.63c7,17.84,19.32,37.11,52,43.4C163.85,80.39,185.51,62.42,187.76,41.58Z"/><path class="cls-6" d="M125.93,102.61c1.64-7.29,5.7-19.88,16.59-30.4,4.47-4.32,11.12-10.75,21.49-12,1.88-.22,16.22-1.71,22.27,7.24,4.17,6.17,2.12,14,1.37,17.1-6.12,25.29-31.41,35-31.41,35Z"/><path class="cls-6" d="M103.84,90.19c.37-2.07,4.59-26.75-3.83-38.34a17.38,17.38,0,0,0-8-6.61c-2.91-1.08-7.67-1.8-11,0C69.57,51.46,75.84,87.08,76.14,87c0,0,0-.1,0-.29Z"/><path class="cls-4" d="M160.1,112.39l-.11,0S160,112.41,160.1,112.39Z"/><path class="cls-4" d="M208,86.69c-3.83-.28-15.12,1.71-24.19,9.13-5.78,4.74-14.06,12.28-15.3,12.68,1.34-.2,7.9,2.53,22-.37A272.72,272.72,0,0,0,215.31,95,37.11,37.11,0,0,1,208,86.69Z"/><path class="cls-4" d="M77,70.35S69,56.49,53.9,55.13l-.95.62a133.94,133.94,0,0,1-13.64,5.83h0c0,6.8,8.93,16.89,25.17,17.54Z"/><path d="M126,108.86C135.41,87.1,145.86,67,168.4,65.77c14.12-.78,20.24,8.61,15.35,21-5.7,14.47-12.56,21.61-24.25,28.75l-37.29,2.14Z"/><path class="cls-2" d="M126,107.79c8.32-19.78,19.15-38,39-39.15,12.42-.71,17.81,7.83,13.5,19.12-5,13.16-11,19.64-21.34,26.13l-32.81,1.94Z"/><path d="M99.26,96.52c1.56-6,2-16.69,1.92-19.48-.26-6.58-.75-13.87-3-20.13a20.21,20.21,0,0,0-3.64-6.79,9.7,9.7,0,0,0-7.08-3.41,9.91,9.91,0,0,0-7.29,3.83,30.84,30.84,0,0,0-2.65,4.55c-1.43,2.53-2.69,9.76-2,18.14Z"/><path class="cls-2" d="M77.39,73.69c-1.66-7.41,1-24.08,11.26-21.92,4.13.87,7.58,3.84,9.56,8.4,4.66,10.72,5.12,26.64,1.17,36.9C93.41,112.54,77.39,73.69,77.39,73.69Z"/><path class="cls-8" d="M102.76,107.56c-1.68-.62-.49,6.42.13,7.3s2-1.35,6.7-4C112.63,109.12,102.76,107.56,102.76,107.56Z"/><path class="cls-6" d="M156.77,145.37a20.13,20.13,0,0,0-7-4.78c-4.74.21-10.42,4.64-13.94,9.72-5.29,2.47-22-1.79-27.66-1.28-4.76.43-10.25,4.43-12.45,9.29-.14.32-.86,4.8-.62,5.53,3.77,5,10.76,6.64,16.44,7.9a101.87,101.87,0,0,0,10.68,1.49A124.64,124.64,0,0,0,141,169c3.87-1.12,7.82-2.19,11.23-4.34s6.29-5.43,7.13-9.37A11.79,11.79,0,0,0,156.77,145.37Z"/><path class="cls-9" d="M149.74,140.59c-4.74.21-10.42,4.64-13.94,9.72a6.21,6.21,0,0,1-.73.26c6.6-.67,18.69-.92,24.42,3.59a11.8,11.8,0,0,0-2.72-8.79A20.13,20.13,0,0,0,149.74,140.59Z"/><path class="cls-6" d="M34.53,62.18s.65,11.87,2.3,16.38,4.51,1,4.51,1L34.4,61.62Z"/><circle class="cls-6" cx="145.87" cy="98.59" r="11.65" transform="translate(23.6 225.27) rotate(-80.07)"/><path class="cls-4" d="M154.05,98.59a8.18,8.18,0,1,1-8.18-8.18A8.17,8.17,0,0,1,154.05,98.59Z"/><path class="cls-10" d="M156.47,103.41c-2.45-3.39-6.32-4.9-9.23-3.37-3.07,1.61-4,6-2.21,10.16.28,0,.56,0,.84,0A11.65,11.65,0,0,0,156.47,103.41Z"/><path class="cls-2" d="M141.31,92.27c0,2.11-1.24,3.83-2.77,3.83s-2.76-1.72-2.76-3.83,1.24-3.82,2.76-3.82S141.31,90.16,141.31,92.27Z"/><path class="cls-6" d="M99.9,78.16A11.65,11.65,0,1,1,88.25,66.51,11.65,11.65,0,0,1,99.9,78.16Z"/><path class="cls-4" d="M96.42,78.16A8.18,8.18,0,1,1,88.25,70,8.17,8.17,0,0,1,96.42,78.16Z"/><path class="cls-10" d="M98.84,83c-2.44-3.39-6.32-4.9-9.23-3.37-3.06,1.61-4,6-2.21,10.16.28,0,.56,0,.85,0A11.62,11.62,0,0,0,98.84,83Z"/><path class="cls-2" d="M85.69,69.84c0,2.12-1.24,3.83-2.77,3.83S80.15,72,80.15,69.84,81.39,66,82.92,66,85.69,67.73,85.69,69.84Z"/><path class="cls-6" d="M211,101.7c2.94-2.37,5.35-5.45,6.06-7.46-2,1-4.42-2.42-5.89-4.14a31,31,0,0,0-5.1.54c-8.65,1.65-16.39,6.3-24,10.73s-15.7,8.09-24.35,9.79c-24.66,4.83-38.82-3-53.53-8.46C94.51,99.16,89.69,82.77,81,74.29,73,66.55,62.13,59,50.38,57A85,85,0,0,1,39,61.19a13.33,13.33,0,0,0,.84,6,19.25,19.25,0,0,1-5.43-5.41L37.5,75.48,32.73,71c6.75,25.23,24.58,47.11,47.53,59.58s50.65,15.57,76,9.3,48.2-21.67,64.22-42.3c-.85-.43-1.65-.91-2.44-1.41A26.77,26.77,0,0,1,211,101.7Z"/><path class="cls-6" d="M164.68,111.69C180.36,106.28,186.7,99,198,93c-5.56,2.2-10.81,5.32-16,8.34-7.62,4.42-15.7,8.09-24.35,9.79a69.31,69.31,0,0,1-30-.26c-.61.17-14.63,0-14.63,0C117,113.82,145.64,118.25,164.68,111.69Z"/><path class="cls-4" d="M96,128.46C83,89.38,64.19,92.79,55.9,88.58A48.26,48.26,0,0,1,39.81,76c-3.7-4.39-4-9.28-4.79-11.56q1.24,5.53,2.48,11.07a2.39,2.39,0,0,0-.23-.22c.08.34.16.69.23,1l-4.44-4.12c7,24.75,24.6,46.17,47.2,58.45,22.95,12.47,50.65,15.57,76,9.3a117.18,117.18,0,0,0,55.54-32.35C189.93,126.9,141.31,145.39,96,128.46Z"/><path class="cls-4" d="M96,128.46C83,89.38,64.19,92.79,55.9,88.58a51.5,51.5,0,0,1-9.5-6.08c10.05,24.87,26.5,48.19,57.57,53.95,17.65,3.28,34.78,1.27,49.62-3C135.36,136.45,115.4,135.7,96,128.46Z"/><path d="M105,16.75a133.67,133.67,0,0,0,2.93,14c1.09,4.09,3.12,8.82,7.3,9.5a67.54,67.54,0,0,1,2.2-26.9A89.19,89.19,0,0,0,105,16.75Z"/><path d="M156.76,17.32c-1.87-3.4-2.51-7.28-.76-10.67l-7.62,7.91c.06-4.06,1.16-9.5-.25-13.94-.44,5.33-6,8.46-10.43,9.74a39.32,39.32,0,0,1-5.89,1.16c-.69,3-2.1,6.64-3.11,13.15-.57,3.71-4,28.4-.26,29C133.31,38.87,143.8,26.29,156.76,17.32Z"/><path d="M179.06,32.74c-4.7-3.23-10.25-5.06-15.07-8.08a56.17,56.17,0,0,0-14.72,15.62c-1.83,2.92-3.45,6.46-2.34,9.73a59.54,59.54,0,0,1,35.14-14.88A29.24,29.24,0,0,0,179.06,32.74Z"/><path class="cls-4" d="M90.9,93.74a69.07,69.07,0,0,1,10.21-7.16c3.39-2,26.41,5.53,27.5,9,1.45,4.65,1.83,11,1.52,12.21a104.65,104.65,0,0,1-25.85,1.33A26.38,26.38,0,0,1,90.9,93.74Z"/><path class="cls-4" d="M104.37,87.55c4,.44,17.56,3.77,24.41,8.65-.05-.21-.11-.42-.17-.62-1.09-3.47-23.94-10.71-27.5-9-7.4,3.55-10.21,7.16-10.21,7.16a36.41,36.41,0,0,1,4,5.39C96.24,96.14,101,87.18,104.37,87.55Z"/><path class="cls-4" d="M89.5,126.39c-1.67-7.5-5.84-18-9.09-21-7.28-6.72-20.56-6.13-23.27-4.76-3.47,1.76-6.88,9.53-6.7,13.37.21,4.55,8,8.06,14.28,12.39-9,9.65-11.9,22-8.74,29.42,2.33,5.45,8.91,6.75,14.74,5.69s10.91-5,14.1-10C89.77,143.68,90,128.83,89.5,126.39Z"/><path class="cls-6" d="M73.66,110.76a12.2,12.2,0,0,1,5.63-6.29c-7.44-5.74-19.57-5.18-22.15-3.87-3.47,1.76-6.88,9.53-6.7,13.37.12,2.52,2.55,4.72,5.78,6.92a47.57,47.57,0,0,0,5.7.54c2.93.13,6,.09,8.6-1.24A10.38,10.38,0,0,0,73,118.36,14.59,14.59,0,0,1,73.66,110.76Z"/><path class="cls-4" d="M64.68,45.71a52.32,52.32,0,0,1-5.63,5.61c2.69.28,10.45,3.44,15,10.32C73.39,54.71,70.31,48.86,64.68,45.71Z"/><path d="M129.51,106c-9,.8-29.93-5-38-12.38-1.49-1.38-1.16,5.9-1.16,5.9s5.78,4.52,10.21,8.41c.93,1.17,1.65,2.5,1.13,3.42-.43.75,3.4,3.49,4.36,2.26,1.53-2,5.85-2.13,11.11-2.13,6.09.17,11.65.62,11.65.62S131.44,105.85,129.51,106Z"/><path class="cls-11" d="M129.51,106c-3.68.33-9.34-.43-15.28-2a73.74,73.74,0,0,1-10.55,9.35c.95.52,2,.78,2.4.22,1.53-2,5.85-2.13,11.11-2.13,6.09.17,11.65.62,11.65.62S131.44,105.85,129.51,106Z"/><path class="cls-4" d="M129.59,106h-.08c-.56,0-1.17.08-1.82.08-9.77,0-28.61-5.51-36.15-12.47a.57.57,0,0,0-.34-.17c-1.09,0-.82,6.08-.82,6.08s5.78,4.52,10.21,8.41c.93,1.17,1.65,2.5,1.13,3.42-.35.61,2.17,2.57,3.61,2.57a.9.9,0,0,0,.75-.31c1.53-2,5.85-2.13,11.11-2.13,6.09.17,11.65.62,11.65.62S131.37,106,129.59,106Zm-1.34,5.15c-1.67-.13-6.21-.44-11.06-.57-5.58,0-10,.18-11.79,2.44h-.07a5,5,0,0,1-2.67-1.54c.41-1.09,0-2.47-1.37-4.12l-.11-.11c-3.79-3.33-8.61-7.16-9.91-8.18a24,24,0,0,1,.19-4.32C99.2,101.41,117.57,107,127.69,107c.58,0,1.13,0,1.63,0A13.91,13.91,0,0,1,128.25,111.17Z"/><path class="cls-12" d="M96.38,98.07c1.91,1,3.53,1.71,3.45,2s-1.84,0-3.86-1-3.34-2.63-3.09-2.87S94.44,97.12,96.38,98.07Z"/><path class="cls-13" d="M50.38,57a84.78,84.78,0,0,1-11.65,4.26l.1.4C41.46,60.32,59.39,55.84,80.71,74,72.77,66.38,62,59,50.38,57Z"/><path class="cls-6" d="M50.46,113.13a8.1,8.1,0,0,0,0,.84c.21,4.48,7.73,8,14,12.2,11.51-3.19,19.41,5.11,15.9-1.63C76.15,116.53,59.91,111.84,50.46,113.13Z"/><path d="M77.35,141.93a23,23,0,0,1-16.87-10.19,36.73,36.73,0,0,0-4.26,8.75C59.53,143.73,67.54,146.35,77.35,141.93Z"/><path class="cls-4" d="M70.72,161.47a20.67,20.67,0,0,0,10.63-5.78,28.14,28.14,0,0,1-18.52,3.21,12.49,12.49,0,0,1-7.38-4.6,14.42,14.42,0,0,0,.53,1.48C58.31,161.23,64.89,162.53,70.72,161.47Z"/><path d="M152.18,164.7a17.15,17.15,0,0,0,1.63-1.16c-1.32-5.79-7.31-12.3-18.79-13a9.53,9.53,0,0,1-1.94.38c8.1,2.22,15.53,9.79,14.42,16A25.92,25.92,0,0,0,152.18,164.7Z"/><path class="cls-6" d="M126.06,159.49c17.09-1.43,8.91-8.79-17.92-10.46-1.42-.09-3,.9-4.49,2C111.31,152,118.83,155.19,126.06,159.49Z"/><path class="cls-6" d="M84.82,151.44c5.18-7.82,5.22-22.61,4.68-25,0-.22-.11-.46-.17-.69-1.87,23.78-12.4,28.89-18.32,31.1-3.9,1.47-11.12,2.41-15.11-1.25,0,.07.05.15.08.23,2.33,5.45,8.91,6.75,14.74,5.69S81.54,156.38,84.82,151.44Z"/><path class="cls-4" d="M104.07,168.33a43.17,43.17,0,0,1-9-4.48c3.77,5,10.76,6.64,16.44,7.9a101.87,101.87,0,0,0,10.68,1.49c2.54-.32,5.44-.84,8.77-1.59C128.23,171.53,121.46,172.78,104.07,168.33Z"/><path d="M113.3,156.38s-4.78,3-5.44,5.28a26.5,26.5,0,0,0,.43,5.51s1.09-4,1.41-5.29C110.33,160.61,113.3,156.38,113.3,156.38Z"/><path d="M107,153.24s-6.15,3.4-7.06,5.95a24.61,24.61,0,0,0,.34,6s1.52-4.37,2-5.8C103.1,158,107,153.24,107,153.24Z"/><path d="M121.89,160.27s-4,2.47-4.54,4.41a22,22,0,0,0,.35,4.6s.92-3.33,1.18-4.41C119.4,163.8,121.89,160.27,121.89,160.27Z"/><path d="M65.54,117.49a14.67,14.67,0,0,1-.73-5.75s.19-1.17,2.57-5.41l-1.82,11.18S65.54,117.49,65.54,117.49Z"/><path d="M56.54,116.48a19.11,19.11,0,0,1-.52-6.63s.24-1.36,2.8-6.37c0,0,0,0-2.26,13C56.55,116.51,56.54,116.49,56.54,116.48Z"/><path class="cls-14" d="M107.83,125.7a5.85,5.85,0,0,1-5.74-1.73,6,6,0,0,1-1.36-4.73,12.76,12.76,0,0,1-4.84.75c-1.63-.06-4.38-.25-5.38-2.25"/></g></g></g></svg>