<svg xmlns="http://www.w3.org/2000/svg" viewBox="0 0 2113.17 1574.96"><defs><style>.cls-1{fill:#00144d;}.cls-2{fill:#304f75;}.cls-3{fill:#446592;}.cls-4{fill:#f7a491;}.cls-5{fill:#f7cc7f;}.cls-6{fill:#a1d2e5;}.cls-7{fill:#aae0fa;}.cls-8{fill:#f47458;}.cls-9{fill:#fff;}.cls-10{fill:#13375b;}.cls-11{fill:#9bb1d8;}.cls-12{fill:#bab8b4;}</style></defs><g id="Calque_2" data-name="Calque 2"><g id="Layer_1" data-name="Layer 1"><rect class="cls-1" y="1555.19" width="2081.71" height="19.78" transform="translate(2081.71 3130.15) rotate(180)"/><polygon points="184.34 1555.33 164.31 1555.33 207 1184.33 227.02 1184.33 184.34 1555.33"/><polygon points="534.83 1555.33 514.8 1555.33 557.49 1184.33 577.51 1184.33 534.83 1555.33"/><polygon points="760.9 1555.33 780.93 1555.33 738.24 1184.33 718.22 1184.33 760.9 1555.33"/><path class="cls-2" d="M519.67,1224.65H246.52c-32,0-60.63-26-63.9-58L137.48,725.76c-3.28-32,20-58,52-58H462.66c32,0,60.63,26,63.91,58l45.14,440.92C575,1198.69,551.69,1224.65,519.67,1224.65Z"/><path class="cls-3" d="M595.52,1224.65H322.37c-32,0-60.63-26-63.9-58L213.33,725.76c-3.28-32,20-58,52-58H538.51c32,0,60.63,26,63.91,58l45.14,440.92C650.84,1198.69,627.54,1224.65,595.52,1224.65Z"/><path class="cls-2" d="M632.13,1245H245c-30,0-56.81-24.32-59.88-54.33h0c-3.07-30,18.76-54.32,48.76-54.32H621c30,0,56.82,24.32,59.89,54.32h0C684,1220.66,662.13,1245,632.13,1245Z"/><path class="cls-3" d="M728.78,1245H341.61c-30,0-56.81-24.32-59.88-54.33h0c-3.08-30,18.76-54.32,48.76-54.32H717.66c30,0,56.81,24.32,59.88,54.32h0C780.62,1220.66,758.78,1245,728.78,1245Z"/><path class="cls-4" d="M534.24,752.49c8-6.51,69.9,20.67,69.11,30.13s43.19,101.17,43.19,101.17l76-60.63,0,0c.67-2.19,4.73-18.86,7.19-27.31C731,791.6,744,781,750,782.16s-5.1,8.63-5.83,10c-2,3.74,5.67,5.14,5.67,5.14s22-12,22.42-19.15,5-21.95,9.74-18.84c2.45,1.6,2.43,12.15,1.66,17.15,1.42-5.68,3.41-12.09,5.36-12.73,3.55-1.16,5.32,3.36,4.67,5.58S778.75,799.48,777,802.2c-8.68,13.64-28.65,27.4-33.75,33.61,0,0-98.3,112.44-105.3,115.38-6.14,2.58-28-36.17-48.72-61.89S509.23,772.84,534.24,752.49Z"/><path class="cls-4" d="M807,1441.23s4.62,50.51,1.58,67a63.07,63.07,0,0,1-2.35,8.08c-3.13,9.23,5.45,37.43,5.45,37.43l115.11.43c6.27,0,2.08-4-3-7.6-8.35-6-15.08-9.9-41.67-22.33-1.73-.81-8-4.72-10.33-6.07-5.79-3.42-11.62-8.86-16.65-14.31-8.37-9.08-9.65-53.59-9.65-53.59Z"/><path class="cls-2" d="M871.77,1518.14c-30.34,8.17-52.9,3.15-65.55-1.75-3.13,9.22-9,40.39-5.51,40.39,28.86,0,53.29,5.47,136,4.16,3,0,2.6-10.22.67-12.46C932,1542.28,874.06,1519.5,871.77,1518.14Z"/><path class="cls-4" d="M935.67,1359.43s25.18,44,29.25,60.29a63,63,0,0,1,1.22,8.32c1,9.7,20.49,31.8,20.49,31.8l104.9-47.4c5.72-2.58.25-4.46-5.9-5.66-10.07-2-17.82-2.75-47.17-3-1.92,0-9.29-.94-11.93-1.23-6.68-.71-14.24-3.23-21.08-6.11-11.39-4.78-31-44.75-31-44.75Z"/><path class="cls-5" d="M541.93,525.77c-13.83-28-48-43.89-79.21-43.93-99-.13-111.61,127.27-174.65,176.41-18.9,14.74-40,26.8-58,42.56a86.07,86.07,0,0,0,4.76,30.63,129.19,129.19,0,0,0,15.3,28.73l26.68-15.46-11.59,33.7c23.78,24.74,55.47,43,86.35,60,43.1,23.13,89,33,135.7,35.14,17.41-35.14,29.69-74.11,43.06-110.43,16-43.52,29.47-88.83,31.45-135.3C563.28,592.84,558,558.32,541.93,525.77Z"/><path class="cls-2" d="M1026.51,1402.53c-24.21,20-46.82,24.83-60.36,25.61,1,9.69,8.56,40.5,11.75,39,26.26-12,50.76-17.15,125.46-52.66,2.68-1.28-1.88-10.38-4.56-11.62C1091.37,1399.47,1029.16,1402.82,1026.51,1402.53Z"/><path class="cls-6" d="M559.37,677.68c45,15.25,64.14,129.17,64.14,129.17s-70.55,19.7-88.63,9.37c0,0-20.52-91-27.87-87.78Z"/><path class="cls-7" d="M510.32,669h0a16.93,16.93,0,0,0,4.53-.93c8.35-1.5,30.3,3.63,44.51,9.62,17.28,7.3,27.71,71.61,26.12,141.53-.64,10.69-8.7,175.36-9.52,175.88-20.61,13.27-143.44,19.75-152,8.45S408.85,797,404.69,790.19L396.52,670.8C410.94,666.49,488.21,668.84,510.32,669Z"/><path class="cls-4" d="M459.92,625s8,41.42,6.4,57.76,6.11,69,40.69,69.17,6.57-67,3.31-83-4-65.57-4-65.57Z"/><path class="cls-8" d="M507,628.29c-.54-13.56-.72-24.87-.72-24.87L459.92,625s1.64,8.47,3.28,19.26C483.5,648.36,498.21,640.85,507,628.29Z"/><path class="cls-4" d="M443,510.71a57.42,57.42,0,0,0-24.4,31.4c-6.54,21.49.9,76.93,47.06,90.31s66.16-30.52,56.65-64.85S492.09,489.78,443,510.71Z"/><path class="cls-4" d="M528.06,554.27c-.91,9.22-6,16.26-11.37,15.74s-9-8.43-8.08-17.65,6-16.27,11.36-15.74S529,545.05,528.06,554.27Z"/><path class="cls-5" d="M448.38,507.91s-8.37,61.85-28.37,73-11.62,38.6-11.62,38.6-18.14-63.71-2.33-84.17S448.38,507.91,448.38,507.91Z"/><path class="cls-4" d="M431.86,589.8c5.42,8.06,5.4,17.56-.05,21.23s-14.26.1-19.68-8-5.4-17.56,0-21.23S426.43,581.74,431.86,589.8Z"/><path class="cls-9" d="M499.12,593.24l-32.54,8.19s3.91,12.36,18.33,9.18C502.48,606.73,499.12,593.24,499.12,593.24Z"/><path class="cls-4" d="M204.21,1138.86c.54-1.5,1.83-1.57,3.15-1.65,12.86-.8,25.7-1.78,38.39-4.09a27.46,27.46,0,0,0,6.14-1.77,16.11,16.11,0,0,1,10.62-.73,21.17,21.17,0,0,0,5.94.44c6.47-.23,24.72-7.09,34.15-9a5.58,5.58,0,0,0,4.3-4.29c8.17-37.18,25.57-120.58,27.31-147.88,2.22-34.91,21.32-192.6,21.32-192.6l64.88,15.92S404.52,907.9,399,964.3c-4.29,43.55-51.68,138.88-64.43,165.77-6,19.91-20.9,20.92-24.35,21.46a8,8,0,0,0-5,2.88,35.91,35.91,0,0,1-7.89,7.32,19,19,0,0,0-5.36,5.68c-2.61,4.08-4.92,8.32-7.21,12.58-1.51,2.82-3.17,3.75-5.57,3.17-2.57-.62-3.84-2.47-3.89-5.58a25.45,25.45,0,0,1,3.44-12.79c2.05-3.73,1.82-5.86-.8-9.16a29.07,29.07,0,0,0-5-5.22c-2-1.51-4-2.63-6.65-2.18a105.64,105.64,0,0,1-13.94,3l-3.87.92c-.14,0-2.11.51-2.11.51-.32.1-7.14,1.06-9.48,1.14-1.89.06-4.93.28-7.52.49-2.34.19-7.35-.88-7.51-.88a9.08,9.08,0,0,1-6.09-2.22c-.71-.6-1.41-1.29-1.09-2.36a2.39,2.39,0,0,1,2-1.64c1.54-.33,9.49-1.55,9.39-1.88-2.37.07-9.8.13-12.17.14a11.1,11.1,0,0,1-8.28-3.34C204.71,1141.26,203.68,1140.36,204.21,1138.86Z"/><path class="cls-7" d="M398.26,670.37c-31.75-5.77-60.47,136.48-60.47,136.48s70.55,19.7,88.63,9.37c0,0,20.52-91,27.87-87.78Z"/><path class="cls-10" d="M577.65,983.38v26l244,51.33,60.57,181.94-33.75-23,7.79,280.17-51.33.36S716,1265,745.2,1146.81l-270.09,4.13s-122.41-47.27-59.25-189.79Z"/><path class="cls-10" d="M577.65,1009.34s253.15,1.7,271.12,15.54,152.89,357.91,152.89,357.91l-58.84,22s-117.06-195.19-123.26-209.11S768,1079.94,750.72,1069.56,577.65,1009.34,577.65,1009.34Z"/><path class="cls-10" d="M760.67,673.74a24.76,24.76,0,1,0,24.76,24.76A24.76,24.76,0,0,0,760.67,673.74Zm0,46a21.25,21.25,0,1,1,21.25-21.24A21.24,21.24,0,0,1,760.67,719.74Z"/><rect class="cls-10" x="721.8" y="724.72" width="7.99" height="10.56" rx="3.32" transform="translate(-300.69 807.59) rotate(-49.49)"/><path class="cls-10" d="M760.85,722.49h0c-4.3,0-7.82-2.87-7.82-6.38V704.37c0-3.51,3.52-1.86,7.82-1.86h0c4.3,0,7.82-1.65,7.82,1.86v11.74C768.67,719.62,765.15,722.49,760.85,722.49Z"/><circle class="cls-3" cx="761.5" cy="762.18" r="46.57"/><circle class="cls-9" cx="761.5" cy="762.18" r="38.21"/><path class="cls-11" d="M761,736.27h0a.54.54,0,0,1-.54-.54V725.44a.54.54,0,0,1,.54-.54h0a.54.54,0,0,1,.54.54v10.29A.54.54,0,0,1,761,736.27Z"/><path class="cls-11" d="M761,799.69h0a.54.54,0,0,1-.54-.54V788.86a.55.55,0,0,1,.54-.54h0a.54.54,0,0,1,.54.54v10.29A.54.54,0,0,1,761,799.69Z"/><path class="cls-11" d="M742.8,744.24h0a.55.55,0,0,1-.77,0L734.75,737a.56.56,0,0,1,0-.76h0a.55.55,0,0,1,.77,0l7.28,7.28A.56.56,0,0,1,742.8,744.24Z"/><path class="cls-11" d="M735.59,762.72h0a.54.54,0,0,1-.54.54h-10.3a.54.54,0,0,1-.53-.54h0a.54.54,0,0,1,.53-.54h10.3A.55.55,0,0,1,735.59,762.72Z"/><path class="cls-12" d="M743.56,780.89h0a.54.54,0,0,1,0,.76l-7.28,7.28a.54.54,0,0,1-.76,0h0a.54.54,0,0,1,0-.76l7.28-7.28A.54.54,0,0,1,743.56,780.89Z"/><path class="cls-11" d="M780.2,780.13h0a.55.55,0,0,1,.77,0l7.27,7.27a.55.55,0,0,1,0,.77h0a.54.54,0,0,1-.76,0l-7.28-7.28A.54.54,0,0,1,780.2,780.13Z"/><path class="cls-11" d="M787.41,761.64h0a.54.54,0,0,1,.54-.53h10.29a.54.54,0,0,1,.54.53h0a.54.54,0,0,1-.54.54H788A.54.54,0,0,1,787.41,761.64Z"/><path class="cls-11" d="M779.44,743.48h0a.54.54,0,0,1,0-.76l7.28-7.28a.54.54,0,0,1,.76,0h0a.54.54,0,0,1,0,.76l-7.28,7.28A.54.54,0,0,1,779.44,743.48Z"/><path class="cls-3" d="M780.34,761.74c-.31-.13-.68-.29-1.1-.44l-.68-.26a.52.52,0,0,0-.37,0,2.38,2.38,0,0,1-.38,0H763.5a2.36,2.36,0,0,0-1-.95V748.38a1.71,1.71,0,0,1,0-.32.45.45,0,0,0,0-.3c-.07-.2-.15-.39-.21-.57-.13-.35-.27-.66-.37-.91-.22-.51-.37-.8-.37-.8s-.15.29-.37.8c-.1.25-.24.56-.37.91l-.21.57a.45.45,0,0,0,0,.3c0,.11,0,.21,0,.32v11.69a2.32,2.32,0,0,0,1,4.44,2.31,2.31,0,0,0,2-1.16h14.31a2.38,2.38,0,0,1,.38,0,.66.66,0,0,0,.37,0l.68-.26c.42-.16.79-.32,1.1-.45.61-.26,1-.44,1-.44S781,762,780.34,761.74Z"/><rect class="cls-2" x="745.1" y="699.87" width="31.51" height="9" rx="2.09"/><rect class="cls-3" x="751.75" y="699.87" width="9.1" height="9"/><rect class="cls-3" x="760.85" y="699.87" width="9.1" height="9"/><path class="cls-4" d="M728.71,830c17.06-5.28,9-29.31,9.69-32.74,3.29-5,10.92-16.22,6.83-20.47-1.68-1.22-8.58,8.35-14.26,15.73C724.23,808.94,728.71,830,728.71,830Z"/><path class="cls-4" d="M1430.22,1222.08c-1.8-29.13-16-77.88-16-77.88l50.5-336.54-129.94-48-35.11,9.69s-21.85,68.14-15,170.53c3.67,54.72,66.29,532.28,66.29,532.28h0c-.88,13.93-3,33.58-7.84,39.34-4.68,5.55-10.11,11.08-15.52,14.6-2.13,1.38-8.05,5.38-9.67,6.22-24.92,12.82-31.21,16.86-39,23-4.77,3.73-.48,3.88,5.43,3.78l100-2.23s3.35,1.53,7.54-6.79-3.25-25.88-4.89-34.72c-1.11-6-1.32-16.58-1.14-27.58C1386,1487.33,1432,1251.18,1430.22,1222.08Z"/><path class="cls-2" d="M1327.64,1526.09c28.69,7.84,49.9,2.51,61.77-2.58,3.06,9.23,7.12,20.8,5,27.48-2.63,8.17-6.38,10-9.69,10.11-26.21.74-96,1.73-116,2-2.79,0-4.33-3.43-2.53-5.71C1271.11,1551.1,1325.5,1527.49,1327.64,1526.09Z"/><path class="cls-10" d="M1446.76,911l16.07-107.1-129.94-48-34.77,1.78s-20.74,70.33-16,167.09C1323.81,924.2,1394.75,921.5,1446.76,911Z"/><path class="cls-4" d="M1317.85,708.18l151.74-16,.29,17.1c5.07,9.92,70.08,30.49,64.39,132.49-3.33,59.58-61.91,261-47.91,269.14,0,0,99.35,22.15,197.21,110,10.37,5.13,17.71,8.38,19.44,9s11.63-.68,13.55-.1c29.67,32.37,29.41,71.94,24.83,105.16-12.34-19.31-27.44-46.54-32.2-48.53-3.47-1.45-21.16-9.33-40.51-17.49-56.46-21.28-234.21-81.84-265.79-100.42-14.73-8.66-64.08-307.94-67.69-325.54-2.12-10.36-7.1-48.73-14.19-73A133.86,133.86,0,0,1,1317.85,708.18Z"/><path class="cls-2" d="M1704.39,1230c13.86-5.57,43.23-9.17,44.34-6.4,1.33,3.31,39.21,122.26,26.25,140.46-7.8,11-17.89-5.57-33.62-29.15C1745.93,1301.71,1713.62,1230.84,1704.39,1230Z"/><path class="cls-10" d="M1343.54,895.92c-5-28.51-8.45-48.77-9.31-53-2.13-10.36-7.11-48.73-14.2-73a133.85,133.85,0,0,1-3.15-61.82l151.73-16,1.27,17.1c4.86,9.52,66.85,28.84,66.74,120.36C1508.94,835.4,1430.26,853.58,1343.54,895.92Z"/><path d="M1656.1,137.28c-12.22,32.53,7.1,56.8,20.55,88.84,9,21.51-10.88,55.67-33.36,71.41-57,39.86-70.33,40.89-66.21,95,9.92,130.38-144.7,74.8-169.57,70.65s-43.64-3-55.52-11.31c-35.82-25-69.43-100-63.13-163.23s81-41.5,98-70.52-34.53-65.16,9.44-113.63c126.3-139.19,258.13-45.83,262.83,7.4A56.89,56.89,0,0,1,1656.1,137.28Z"/><path class="cls-4" d="M1301.77,404.55s-72-123.06-89.1-151.73S1151.61,111.36,1150,106.93s31.87-55.2,24.56-57.35-15.75,26.86-23.53,23S1121.3-3.19,1116.81.11c-8.42,6.17,11.78,44.48,7.31,46.62S1106.71,4.8,1098,5.66s16.12,40.59,13.64,43.88-28.33-34.27-33.18-26.77c-2.63,4.08,23.79,32.84,18.62,35.17s-28.75-16.55-31.33-11.56,21.87,13.18,29,27.32,19.59,20.7,24.47,46.48,12.54,133.66,38.56,181S1237.57,438,1237.57,438Z"/><path class="cls-4" d="M1502.49,446.23s151.44,3.77,184.69,6.5,153.9-7.31,158.58-7.85,35.58-52.89,40.71-47.27-17.19,25.95-10.29,31.23,81.12-6.54,80.13-1c-1.84,10.26-45.13,8.95-45.09,13.91s45.31-2.78,48.38,5.45-43.54,3.35-45.4,7,43.23,10.39,38.62,18.05c-2.51,4.15-40-6.94-39.78-1.28s27.51,18.55,24.16,23.06-21.45-13.84-37.3-14.07-27.2-8.5-52.51-1.56-112.07,31.34-165.55,39.17c-54.69,8-181.76,13.89-181.76,13.89Z"/><path class="cls-4" d="M1263,615.77c-7.59-80.54,10.11-96.17,11.24-104.46-7.56-25.95-35.13-64.41-40.91-75.29,0,0,37.4-42.36,65.13-42,0,0,29.5,37.26,51.39,48.67.32-.08,7.75,3.31,11,3.29,21.14-.15,95-2.39,108.8,1.73l16.59,114.83c-4,6.54-8.79,137.79-17,148.59s-151.48,59.29-171.19,46.61C1297.34,757.22,1267.78,666.21,1263,615.77Z"/><path class="cls-10" d="M1431.21,450.34c13.62-6.51,113.16-6.29,113.16-6.29s13.18,77.72,2.05,94.22c0,0-71.65,26.58-69.14,33.81Z"/><path class="cls-10" d="M1266.83,641.05h0c-28.43-66.52,6.3-121.45,7.43-129.74-7.56-25.95-35.13-64.41-40.91-75.29,0,0,37.4-42.37,65.13-42,0,0,29.5,37.25,51.39,48.67.32-.08,7.75,3.31,11,3.29,21.14-.15,82.54-3.87,108.8,1.73l16.59,114.83c-2.73,4.49-2.68,31.43-7,74.15C1456.31,647.44,1371.28,636.37,1266.83,641.05Z"/><path class="cls-4" d="M1409.07,403.94s-7.65,39.59-6.12,55.21-5.84,66-38.9,66.13-6.28-64-3.17-79.31,3.85-62.69,3.85-62.69Z"/><path class="cls-8" d="M1364.05,407.05c.52-13,.68-23.77.68-23.77l44.34,20.66s-1.56,8.09-3.14,18.41C1386.53,426.25,1372.46,419.07,1364.05,407.05Z"/><path class="cls-4" d="M1425.28,294.65a54.91,54.91,0,0,1,23.32,30c6.25,20.54-.86,73.55-45,86.34s-63.25-29.18-54.16-62S1378.31,274.64,1425.28,294.65Z"/><path class="cls-4" d="M1343.93,336.29c.87,8.82,5.73,15.55,10.86,15s8.6-8.06,7.73-16.87-5.72-15.55-10.86-15.05S1343.07,327.48,1343.93,336.29Z"/><path d="M1420.1,292s8,59.13,27.12,69.8,11.12,36.91,11.12,36.91,17.33-60.91,2.22-80.48S1420.1,292,1420.1,292Z"/><path class="cls-4" d="M1435.9,370.26c-5.19,7.71-5.17,16.79,0,20.3s13.63.1,18.82-7.61,5.16-16.79,0-20.29S1441.08,362.56,1435.9,370.26Z"/><path class="cls-9" d="M1403.47,379.11l-35.26-12s-3.83,13.91,11.52,19.65C1398.45,393.75,1403.47,379.11,1403.47,379.11Z"/><path class="cls-3" d="M2065.72,721.4c-27.46-7-66.63-13.37-116.44-18.78-102-11.08-237.61-17.18-381.79-17.18-31.46,0-62.51.29-92.89.86-.64,5.18-1.31,9.78-2,13.61,31-.59,62.76-.9,94.9-.9,141.83,0,275.64,5.94,376.78,16.72,150.18,16,155.29,34.88,155.33,35s-5.14,19-155.33,35.06c-101.14,10.79-234.94,16.73-376.78,16.73s-275.65-5.94-376.78-16.73c-150.19-16-155.29-34.87-155.33-35s5.15-19,155.33-35.06c28.29-3,59.15-5.65,92-7.89-1.21-4.32-2.43-8.78-3.64-13.35-33.41,2.3-64.72,5-93.38,8.13-49.81,5.41-89,11.73-116.44,18.78-32.81,8.43-47.45,17.48-47.45,29.36s14.64,20.93,47.45,29.35c27.45,7,66.63,13.37,116.44,18.78,102,11.08,237.61,17.19,381.79,17.19s279.77-6.11,381.79-17.19c49.81-5.41,89-11.73,116.44-18.78,32.81-8.42,47.45-17.48,47.45-29.35S2098.53,729.83,2065.72,721.4Z"/></g></g></svg>