<svg xmlns="http://www.w3.org/2000/svg" viewBox="0 0 124.56 160.48"><defs><style>.cls-1,.cls-3,.cls-6{fill:#446592;}.cls-10,.cls-2,.cls-4,.cls-7{fill:#fff;}.cls-2,.cls-3{opacity:0.4;}.cls-4{opacity:0.6;}.cls-5{fill:#fafafa;}.cls-10,.cls-6{opacity:0.3;}.cls-8{fill:#37474f;}.cls-9{fill:#455a64;}.cls-11{opacity:0.2;}</style></defs><g id="Calque_2" data-name="Calque 2"><g id="Timer"><g id="Timer-2" data-name="Timer"><g id="Clock"><g id="Clock-2" data-name="Clock"><path class="cls-1" d="M109,28.52,89.5,17.24l-.07,0-.14-.08h0c-9.47-5.36-22.49-4.53-36.87,3.77C23.46,37.6,0,78.24,0,111.66c0,16.61,5.8,28.3,15.18,33.82h0l.15.08.07,0,19.53,11.28,3.33-8.77a55.73,55.73,0,0,0,14.49-6c28.95-16.72,52.41-57.36,52.41-90.78a55.94,55.94,0,0,0-2-15.44Z"/><path class="cls-2" d="M109,28.52,89.5,17.24l-.07,0-.14-.08h0c-9.47-5.36-22.49-4.53-36.87,3.77C23.46,37.6,0,78.24,0,111.66c0,16.61,5.8,28.3,15.18,33.82h0l.15.08.07,0,19.53,11.28,3.33-8.77a55.73,55.73,0,0,0,14.49-6c28.95-16.72,52.41-57.36,52.41-90.78a55.94,55.94,0,0,0-2-15.44Z"/><path class="cls-3" d="M.46,103.49A78.35,78.35,0,0,0,0,111.66c0,16.61,5.8,28.3,15.18,33.82h0l.15.08.07,0,19.53,11.28,3.33-8.77c1.09-.27,2.19-.59,3.31-1l4.95-17.09Z"/><ellipse class="cls-1" cx="72.15" cy="92.81" rx="74.12" ry="42.79" transform="translate(-44.3 108.89) rotate(-60)"/><ellipse class="cls-4" cx="72.15" cy="92.81" rx="74.12" ry="42.79" transform="translate(-44.3 108.89) rotate(-60)"/><path class="cls-1" d="M111.92,42.82c-6.5-11.26-19.82-12.52-35.64-3.39C50.1,54.54,28,92.84,28,123.06c0,7.92,1.52,14.74,4.4,19.73,6.5,11.26,19.82,12.52,35.64,3.39,26.18-15.11,48.29-53.41,48.29-83.63,0-7.92-1.52-14.74-4.4-19.73Z"/><path class="cls-1" d="M112.64,43.24C105.28,31.48,91,29.68,74.5,38.41,47.17,52.85,25.05,91.15,26.21,122c.31,8.09,2.19,15.12,5.46,20.33,7.36,11.76,21.62,13.56,38.14,4.84,27.33-14.44,49.44-52.74,48.28-83.64-.3-8.09-2.19-15.12-5.45-20.33Z"/><path class="cls-2" d="M112.64,43.24C105.28,31.48,91,29.68,74.5,38.41,47.17,52.85,25.05,91.15,26.21,122c.31,8.09,2.19,15.12,5.46,20.33,7.36,11.76,21.62,13.56,38.14,4.84,27.33-14.44,49.44-52.74,48.28-83.64-.3-8.09-2.19-15.12-5.45-20.33Z"/><path class="cls-5" d="M64.48,144.21c-10.52,5.56-20.11,6.83-27.6,4a22.52,22.52,0,0,1-5.21-5.84c-3.27-5.21-5.15-12.24-5.46-20.33-1.16-30.89,21-69.19,48.29-83.63,10.52-5.56,20.11-6.83,27.6-4a22.37,22.37,0,0,1,5.22,5.84h0c3.26,5.2,5.14,12.24,5.45,20.33C113.93,91.48,91.82,129.77,64.48,144.21Z"/><path class="cls-6" d="M72.29,92.81l-28.91-2q10.54-20.61,26.11-31Z"/><path class="cls-1" d="M68.94,46a2.53,2.53,0,0,0-1.1,2v5.68c0,.76.5,1.08,1.11.73a2.56,2.56,0,0,0,1.1-2V46.74C70.05,46,69.55,45.66,68.94,46Z"/><path class="cls-1" d="M106.6,67.76a2.57,2.57,0,0,1-1.2,2l-4.91,2.84c-.66.38-1.19.12-1.18-.59a2.56,2.56,0,0,1,1.19-2l4.92-2.85C106.07,66.79,106.6,67.05,106.6,67.76Z"/><path class="cls-1" d="M29.91,113.63a2.54,2.54,0,0,1,1.19-2L36,108.82c.66-.38,1.19-.11,1.19.59a2.58,2.58,0,0,1-1.2,2l-4.91,2.84C30.43,114.6,29.9,114.33,29.91,113.63Z"/><path class="cls-1" d="M67.56,135.37a2.57,2.57,0,0,0,1.11-2v-5.68c0-.75-.49-1.08-1.1-.72a2.54,2.54,0,0,0-1.11,2v5.68C66.46,135.4,67,135.72,67.56,135.37Z"/></g><polygon class="cls-1" points="71.17 94.85 43.38 90.86 73.35 90.86 71.17 94.85"/><path d="M72.24,60.35s2.57,23.87,3.37,29.41a3.7,3.7,0,0,1,.12,1,7.91,7.91,0,0,1-3.58,6.2,2.51,2.51,0,0,1-2.52.25c-.33-.19-1.59-.93-1.92-1.11a2.5,2.5,0,0,1-1.07-2.33c-.32-5.71,1.8-33.17,1.8-33.17l1.86-1.35Z"/><path class="cls-1" d="M75.73,90.74a7.91,7.91,0,0,1-3.58,6.2c-2,1.14-3.57.21-3.57-2.07-.33-5.71,1.79-33.18,1.79-33.18l1.87-1.34S75.72,88.45,75.73,90.74Z"/><path class="cls-7" d="M73.83,91.84a2.53,2.53,0,0,1-.92,2.4c-.63.36-1.25-.12-1.38-1.07a2.55,2.55,0,0,1,.91-2.4C73.08,90.41,73.7,90.88,73.83,91.84Z"/><rect class="cls-8" x="95.32" y="90.03" width="5.8" height="0.48" transform="translate(-10.08 12.38) rotate(-6.86)"/><rect class="cls-8" x="82.61" y="113.99" width="0.48" height="5.8" transform="translate(-39.27 41.95) rotate(-23.14)"/><rect class="cls-8" x="53.62" y="61.77" width="0.48" height="5.8" transform="translate(-21.08 26.37) rotate(-23.14)"/><rect class="cls-8" x="35.6" y="91.04" width="5.8" height="0.48" transform="translate(-10.65 5.26) rotate(-6.87)"/><rect class="cls-8" x="98.65" y="53.3" width="7.76" height="0.48" transform="translate(-5.67 94.43) rotate(-48.28)"/><rect class="cls-8" x="79.4" y="42.19" width="7.76" height="0.48" transform="translate(16.84 108.17) rotate(-71.69)"/><rect class="cls-8" x="49.3" y="138.77" width="7.76" height="0.48" transform="translate(-95.49 145.82) rotate(-71.69)"/><rect class="cls-8" x="30.06" y="127.66" width="7.76" height="0.48" transform="translate(-84.1 68.09) rotate(-48.27)"/></g><path class="cls-9" d="M67.77,14.22a1.76,1.76,0,0,0-1-1.45,5.53,5.53,0,0,0-5,0,1.76,1.76,0,0,0-1,1.45V27.87a1.79,1.79,0,0,0,1,1.46,5.59,5.59,0,0,0,5,0,1.79,1.79,0,0,0,1-1.46Z"/><path class="cls-8" d="M61.69,15.67a1.76,1.76,0,0,1-1-1.45,1.76,1.76,0,0,1,1-1.45,5.53,5.53,0,0,1,5,0,1.76,1.76,0,0,1,1,1.45,1.76,1.76,0,0,1-1,1.45A5.53,5.53,0,0,1,61.69,15.67Z"/><path class="cls-1" d="M74.38,5.87c0-1.5-1-3-3-4.15A15.89,15.89,0,0,0,57,1.72c-2,1.15-3,2.65-3,4.15V18.32c0,1.5,1,3,3,4.15a15.89,15.89,0,0,0,14.37,0c2-1.15,3-2.65,3-4.15Z"/><path class="cls-10" d="M57,10c-2-1.15-3-2.65-3-4.15s1-3,3-4.15a15.89,15.89,0,0,1,14.37,0c2,1.15,3,2.65,3,4.15s-1,3-3,4.15A15.89,15.89,0,0,1,57,10Z"/><path class="cls-11" d="M57.47,10.24V22.68c.28.14.58.29.89.41V10.65A6.56,6.56,0,0,1,57.47,10.24Zm3.12,1.1V23.8l.88.14V11.5A8.06,8.06,0,0,1,60.59,11.34Zm-5.6-3V20.75a6.34,6.34,0,0,0,.89.91V9.22A4.75,4.75,0,0,1,55,8.31ZM70,10.7V23.14a9.16,9.16,0,0,0,.89-.4V10.3A8,8,0,0,1,70,10.7Zm2.48-1.4V21.74a6.65,6.65,0,0,0,.89-.86V8.47A4.71,4.71,0,0,1,72.44,9.3Zm-5.59,2.22V24l.88-.14V11.36C67.43,11.43,67.15,11.48,66.85,11.52Zm-3.08.19V24.17h.89V11.71A3.32,3.32,0,0,1,63.77,11.71Z"/><path class="cls-9" d="M27.16,44.42a1.76,1.76,0,0,0-1.78-.15,5.6,5.6,0,0,0-3.26,3.84,1.79,1.79,0,0,0,.44,1.74L33,58.68a1.76,1.76,0,0,0,1.78.15A5.58,5.58,0,0,0,38,55a1.79,1.79,0,0,0-.44-1.74Z"/><path class="cls-8" d="M24.34,50a1.74,1.74,0,0,1-1.78-.14,1.79,1.79,0,0,1-.44-1.74,5.6,5.6,0,0,1,3.26-3.84,1.76,1.76,0,0,1,1.78.15,1.79,1.79,0,0,1,.44,1.74A5.56,5.56,0,0,1,24.34,50Z"/><path class="cls-1" d="M26.47,39.47A3.38,3.38,0,0,0,23,39.19a10.74,10.74,0,0,0-6.29,7.41A3.39,3.39,0,0,0,17.58,50L24,55.4a3.41,3.41,0,0,0,3.44.28,10.72,10.72,0,0,0,6.29-7.41,3.41,3.41,0,0,0-.83-3.35Z"/><path class="cls-10" d="M21,50.23A3.41,3.41,0,0,1,17.58,50a3.39,3.39,0,0,1-.84-3.35A10.74,10.74,0,0,1,23,39.19a3.38,3.38,0,0,1,3.44.28,3.39,3.39,0,0,1,.84,3.35A10.72,10.72,0,0,1,21,50.23Z"/><path class="cls-11" d="M21.33,50.1l6.41,5.45c.2-.09.41-.18.6-.28l-6.41-5.45A4.66,4.66,0,0,1,21.33,50.1ZM23.26,49l6.42,5.45.46-.4-6.41-5.44A5.71,5.71,0,0,1,23.26,49Zm-4,1.56L25.67,56a4.15,4.15,0,0,0,.85-.06L20.1,50.47A3.18,3.18,0,0,1,19.25,50.54ZM27,43.86l6.42,5.44c.07-.21.12-.42.18-.63l-6.42-5.44A5,5,0,0,1,27,43.86ZM27.4,42l6.41,5.44a4.44,4.44,0,0,0-.06-.83l-6.4-5.43A3.18,3.18,0,0,1,27.4,42Zm-1.31,3.85,6.42,5.45c.11-.17.21-.35.31-.52L26.4,45.3C26.3,45.48,26.2,45.65,26.09,45.82ZM24.84,47.5,31.27,53l.38-.46L25.23,47A2.44,2.44,0,0,1,24.84,47.5Z"/><rect class="cls-9" x="97.71" y="17.84" width="7.08" height="5.72" transform="translate(178.58 89.25) rotate(-150)"/><rect class="cls-1" x="97.87" y="10.38" width="13.89" height="8.43" rx="1.05" transform="translate(188.29 79.63) rotate(-150)"/><rect class="cls-11" x="102.4" y="15.33" width="8.43" height="0.6" transform="translate(39.78 100.15) rotate(-60)"/><path class="cls-11" d="M112.24,14.06l-4.17,7.23-.26-.1-.28-.17,4.21-7.29.28.16A1.84,1.84,0,0,1,112.24,14.06Z"/><rect class="cls-11" x="104.23" y="16.39" width="8.43" height="0.6" transform="translate(39.77 102.26) rotate(-60)"/><path class="cls-11" d="M97.34,15.07l4.15-7.19a1.1,1.1,0,0,1,.33.12l.22.12-4.21,7.3-.23-.13A.92.92,0,0,1,97.34,15.07Z"/><rect class="cls-11" x="100.54" y="14.26" width="8.43" height="0.6" transform="translate(39.76 97.98) rotate(-59.99)"/><rect class="cls-11" x="96.91" y="12.16" width="8.43" height="0.6" transform="translate(39.77 93.81) rotate(-60)"/><rect class="cls-11" x="98.74" y="13.22" width="8.43" height="0.6" transform="matrix(0.5, -0.87, 0.87, 0.5, 39.76, 95.9)"/></g></g></g></svg>