<svg xmlns="http://www.w3.org/2000/svg" viewBox="0 0 793.82 1259.62"><defs><style>.cls-1{isolation:isolate;}.cls-2{fill:#dfdfe4;}.cls-3{fill:#754836;}.cls-4{fill:#eea886;}.cls-5{fill:#446592;}.cls-6{fill:#ffb490;}.cls-7{fill:#854938;}.cls-8{fill:#fff;}.cls-9{fill:#00144d;}.cls-10{mix-blend-mode:multiply;}.cls-11{fill:#aae0fa;}</style></defs><g class="cls-1"><g id="Calque_2" data-name="Calque 2"><g id="Layer_1" data-name="Layer 1"><ellipse class="cls-2" cx="408.78" cy="1194.87" rx="385.04" ry="64.75"/><path class="cls-3" d="M464.62,240.25s-1.8,50.54-50.43,63.81a31.12,31.12,0,0,1,3.88,15.29S409.88,301.27,404,308s-11.13,16.48-11.13,16.48-25.24-50.45,4.9-74.07S464.62,240.25,464.62,240.25Z"/><path class="cls-3" d="M449.76,237.62a42.83,42.83,0,0,0,1.64,7.67c1.76,5.3,3.7,10.49,5.18,15.84,9.55,5.5,16.58,19.34,16.36,21.65a30.28,30.28,0,0,0,5.68,12.51s-4.26-19.38,4.5-17.52,18.77,6.54,18.77,6.54S480.9,226.56,449.76,237.62Z"/><path class="cls-3" d="M490.23,476.91c-26,7.56-53.91,8.21-79.91.7a16.8,16.8,0,0,0-14.27-6.91c-.37-5.05-5.34-8.25-9.39-11.3-15.79-11.87-23.49-32.44-23.08-52.19.62-29.72,24.63-53.31,18.58-83-4.69-23.1-20.51-74,40.43-92.52,37.75-11.5,59.75,6.69,74.17,40,7.92,18.31,13.92,29.61,31.09,40.69,18.58,12,43.9,31.09,51.63,52.6,7.92,22-2.47,46.7-17.2,64.9C543.91,452.54,518.23,468.75,490.23,476.91Z"/><path class="cls-4" d="M425.31,972.29C426.7,949.73,437.7,912,437.7,912L398.59,651.33l100.63-37.17,29-.25s15.13,60.53,9.81,139.83C535.17,796.12,486.67,1166,486.67,1166h0c.69,10.78,2.31,26,6.08,30.47,3.62,4.29,7.83,8.57,12,11.3,1.65,1.07,6.23,4.17,7.49,4.82,19.29,9.93,24.17,13.05,30.21,17.78,3.69,2.89,1.48,3.38-3.1,3.3l-77.68-1.58s-4.2.79-7.44-5.65,3.21-20.17,4.48-27c.86-4.66,1-12.84.88-21.36C459.55,1177.73,423.92,994.83,425.31,972.29Z"/><path class="cls-4" d="M504.75,1207.75c-22.22,6.07-38.64,1.94-47.83-2-2.82,6.85-5.51,16.11-3.85,21.28,2,6.33,4.95,7.76,7.51,7.83,20.3.57,74.35,1.34,89.83,1.56a2.71,2.71,0,0,0,2-4.43C548.54,1227.12,506.41,1208.83,504.75,1207.75Z"/><path class="cls-5" d="M445.51,883,399.28,650.27,499.91,613.1l29-.26s16.7,57.1,13,132c.62,10.38-2.08,46.18-7.44,81.79-6.94,46.08-15.24,86.69-15.24,86.69S464.3,891.87,445.51,883Z"/><path class="cls-4" d="M511.56,576.1,394,563.75,393.82,577c-3.93,7.68-54.28,23.61-49.87,102.61,2.58,46.14,47.94,202.11,37.1,208.44,0,0-76.95,17.15-152.73,85.17-8,4-13.72,6.49-15.06,6.93s-9-.52-10.49-.07c-23,25.07-22.78,55.71-19.23,81.44,9.55-15,21.25-36,24.94-37.58,2.68-1.13,16.38-7.23,31.37-13.55C283.58,993.9,421.24,947,445.7,932.61c11.41-6.71,49.63-238.5,52.42-252.13,1.65-8,5.5-37.74,11-56.5A103.69,103.69,0,0,0,511.56,576.1Z"/><path class="cls-4" d="M212.19,980.26c-10.73-4.31-33.48-7.1-34.34-5-1,2.57-30.37,94.69-20.33,108.79,6,8.48,13.86-4.32,26-22.58C180,1035.78,205,980.9,212.19,980.26Z"/><path class="cls-5" d="M461.85,876.26c7.7-21.43,36.28-191.89,37-195.78,1.55-8,5.5-37.74,11-56.5a103.69,103.69,0,0,0,2.45-47.88L394.8,563.75l-1.65,12.17c-3.76,7.37-51.11,16-51.11,94.07,0,20.49,7.86,46.37,16.82,90.53,7.6,44.78,19.47,88.55,19.47,88.55C411.48,863.6,428,865.79,461.85,876.26Z"/><path class="cls-6" d="M524,341s55.79-95.31,69-117.51,47.29-109.56,48.51-113S616.85,67.69,622.5,66s12.21,20.8,18.23,17.79S654.05,60.36,657.52,62s11.85,1.43,13.77,4,7.27,4.7,11.27,6.5,7.34,1.26,1.78,12.21-15.17,16-19,36-9.71,103.52-29.87,140.21-61.78,105.92-61.78,105.92Z"/><path class="cls-6" d="M368.56,373.23s-117.29,2.92-143,5-119.19-5.66-122.81-6.08-27.56-41-31.54-36.61,13.32,20.1,8,24.19S52,365.88,52,369.72s2.15,7.47,3.59,10.31,1.13,19.48,11.72,18.68c12.24-.94,14.53-6,34.13-.59s86.8,24.27,128.22,30.34c42.35,6.2,140.77,10.76,140.77,10.76Z"/><path class="cls-6" d="M554,504.54c5.89-62.38-7.83-74.49-8.7-80.91,5.86-20.09,27.21-49.88,31.68-58.31,0,0-29-32.81-50.43-32.53,0,0-22.85,28.85-39.81,37.69-.25-.06-6,2.57-8.53,2.55-16.37-.12-73.58-1.85-84.26,1.33L381.12,463.3c3.08,5.07,6.81,106.72,13.14,115.08s117.32,45.92,132.58,36.1C527.45,614.09,550.34,543.6,554,504.54Z"/><path class="cls-5" d="M423.77,376.41c-10.55-5-87.65-4.87-87.65-4.87s-10.21,60.19-1.59,73c0,0,55.5,20.59,53.55,26.19Z"/><path class="cls-5" d="M551.69,519.48c6.73-23.59,1.32,6.74,3.49-14.7,5.85-57.92-7.74-74.84-8.61-81.26,5.85-20.1,26-49.77,30.43-58.2,0,0-29-32.81-50.43-32.53,0,0-22.85,28.85-39.81,37.69-.25-.06-6,2.57-8.53,2.55-16.37-.12-73.58-1.85-84.26,1.33L381.12,463.3c2.12,3.48,1.88,20.55,5.24,53.64C404.12,525.27,470.79,515.86,551.69,519.48Z"/><path class="cls-4" d="M440.91,340.47s5.93,30.67,4.74,42.77,4.53,51.08,30.13,51.21,4.86-49.57,2.45-61.42-3-48.55-3-48.55Z"/><path class="cls-7" d="M475.78,342.89c-.4-10-.53-18.41-.53-18.41l-34.34,16s1.21,6.27,2.43,14.26C458.37,357.75,469.27,352.19,475.78,342.89Z"/><path class="cls-4" d="M428.36,255.83a42.55,42.55,0,0,0-18.07,23.25C405.46,295,411,336,445.14,346s49-22.6,41.95-48S464.74,240.33,428.36,255.83Z"/><path class="cls-4" d="M491.36,288.08c-.67,6.83-4.43,12.05-8.41,11.66s-6.66-6.24-6-13.07,4.44-12,8.41-11.65S492,281.26,491.36,288.08Z"/><path class="cls-3" d="M432.37,253.76s-6.2,45.79-21,54.06-8.61,28.58-8.61,28.58-13.43-47.18-1.72-62.33S432.37,253.76,432.37,253.76Z"/><path class="cls-4" d="M420.13,314.39c4,6,4,13,0,15.72s-10.56.08-14.57-5.89-4-13,0-15.72S416.12,308.43,420.13,314.39Z"/><path class="cls-8" d="M445.25,321.25l27.31-9.3s3,10.77-8.93,15.22C449.14,332.58,445.25,321.25,445.25,321.25Z"/><rect class="cls-9" x="592.51" y="62.48" width="128.2" height="20.03" transform="translate(78.11 -246.46) rotate(22.57)"/><polygon class="cls-10" points="619.89 65.4 626.63 49.18 601.27 38.64 594.53 54.86 593.58 57.13 618.94 67.67 711.96 106.34 712.91 104.06 619.89 65.4"/><rect class="cls-11" x="573.82" y="2.86" width="47.2" height="90.05" rx="8.96" transform="translate(64.13 -225.63) rotate(22.57)"/><rect class="cls-11" x="692.21" y="52.06" width="47.2" height="90.05" rx="8.96" transform="translate(92.09 -267.3) rotate(22.57)"/><path class="cls-5" d="M562.43,76.18l27.85-67A9,9,0,0,1,602.1,4.63l26.66,11.08a9.3,9.3,0,0,1,4.93,4.76A9.07,9.07,0,0,0,628,11.85L601.38.77a9,9,0,0,0-11.83,4.57l-27.84,67a8.56,8.56,0,0,0,.16,6.84A8.6,8.6,0,0,1,562.43,76.18Z"/><path class="cls-5" d="M680.82,125.39l27.84-67a9,9,0,0,1,11.82-4.57l26.66,11.08a9.38,9.38,0,0,1,4.94,4.77,9.09,9.09,0,0,0-5.66-8.63L719.76,50a9,9,0,0,0-11.82,4.57l-27.85,67a8.49,8.49,0,0,0,.17,6.83A8.1,8.1,0,0,1,680.82,125.39Z"/><rect class="cls-9" x="0.51" y="358.63" width="128.2" height="20.03" transform="translate(402.94 208.62) rotate(74.63)"/><polygon class="cls-10" points="47.62 335.32 64.56 330.67 57.27 304.18 40.34 308.84 37.97 309.49 45.25 335.98 71.95 433.11 74.33 432.45 47.62 335.32"/><rect class="cls-11" x="24.02" y="261.81" width="47.2" height="90.05" rx="8.96" transform="matrix(0.27, 0.96, -0.96, 0.27, 330.86, 179.58)"/><rect class="cls-11" x="58.01" y="385.42" width="47.2" height="90.05" rx="8.96" transform="translate(475.02 237.66) rotate(74.63)"/><path class="cls-5" d="M3.79,296.64l69.95-19.23a9,9,0,0,1,10.87,6.52l7.65,27.83a9.34,9.34,0,0,1-.72,6.83,9.08,9.08,0,0,0,3.32-9.77L87.21,281a9,9,0,0,0-10.87-6.51L6.39,293.7A8.49,8.49,0,0,0,1.1,298,8.39,8.39,0,0,1,3.79,296.64Z"/><path class="cls-5" d="M37.78,420.26,107.72,401a9,9,0,0,1,10.87,6.51l7.66,27.84a9.37,9.37,0,0,1-.72,6.82,9.08,9.08,0,0,0,3.32-9.77l-7.66-27.83a9,9,0,0,0-10.87-6.52L40.38,417.31a8.55,8.55,0,0,0-5.3,4.34A8.34,8.34,0,0,1,37.78,420.26Z"/><path class="cls-6" d="M685.86,70.91c-2.25-1.49-3.48-2.07-9.83-4.47a60.84,60.84,0,0,1-6-2.84c-2.67-2.24-12.8-7.5-14.46-4.5-1.8,3.24,1,20.26,3.12,21.39,1.79.94,3.7.31,4.23-7.35,1.35,12.58,4.45,21.51,8.54,4.79.54,8.33.87,12.35,3.44,12.22s4.86-10.44,5.14-11.57c-.32,11.75,4.57,12,6.73,4.24C687.77,77,689.33,73.2,685.86,70.91Z"/><path class="cls-6" d="M58.8,396.52c-1.09-2.47-1.45-3.77-2.76-10.44a59.71,59.71,0,0,0-1.8-6.39c-1.76-3-5.25-13.87-2-15,3.49-1.23,19.81,4.34,20.56,6.66.63,1.92-.31,3.7-8,2.94,12.18,3.43,20.47,8,3.3,9.21,8.12,1.93,12,2.93,11.48,5.44S68.5,392,67.34,392.07c11.64,1.64,11,6.5,3.06,7.34C64.52,399.42,60.48,400.33,58.8,396.52Z"/></g></g></g></svg>