<svg xmlns="http://www.w3.org/2000/svg" viewBox="0 0 859.81 1251.28"><defs><style>.cls-1{fill:#dfdfe4;}.cls-2{fill:#f7a491;}.cls-3{fill:#446592;}.cls-4{fill:#f8a492;}.cls-5{fill:#00144d;}.cls-6{fill:#f47458;}</style></defs><g id="Calque_2" data-name="Calque 2"><g id="Layer_1" data-name="Layer 1"><ellipse class="cls-1" cx="401.96" cy="1186.53" rx="401.96" ry="64.75"/><path class="cls-2" d="M603.18,1078.59s1.66,45.89-1.9,60.62c-1.91,7.9-11.36,23.92-7.67,31.57s112.08,15.73,112.08,15.73c5.66.33,2.07-3.47-2.35-7-7.24-5.81-13.12-9.69-36.49-22.22-1.53-.82-7-4.66-9-6-5-3.38-10-8.58-14.3-13.75-7.11-8.61-6-48.92-6-48.92Z"/><path d="M657.8,1151.28c-27.79,5.9-47.91.26-59.08-4.79-3.29,8.18-13.64,28.26-10.6,29.2,23.86,7.4,51.24,18.42,126,21.28,2.67.11,3.06-12.94,1.43-15.06C711,1176,659.8,1152.62,657.8,1151.28Z"/><path class="cls-3" d="M454.87,568.9s4.82,61.21,24.56,99.46c19.22,37.25,88.9,125.3,113.71,179.09-5,31.42-3.65,77.66-.39,112,3.69,38.9,7.19,142.18,7.19,142.18l44-1.11L686.59,831,597.54,586.51l-33.7-78.78Z"/><path class="cls-2" d="M213.07,800.09s-95.68,21.46-112.3,23.52-53.51,57.08-38.2,47.26c3.53-2.26,15.43-8.82,16.61-9.14,6.35-1.7,118.6-14.43,118.6-14.43Z"/><path d="M35.19,907.05l42.63-44.68s2.42-19,22.77-38.87a66.13,66.13,0,0,0-17.51-22.17c-2.06-1.65-16-13-18.1-11.37-7.76,5.89-21.37,29.87-36.23,56.09,0,0-16.07,35.85-23.3,61.07S35.19,907.05,35.19,907.05Z"/><path class="cls-3" d="M424.41,843.85C445.88,816.74,532.8,551.28,532.8,551.28l-36.27,12.53L389.89,518.94c-2.89-4.43-47.74,255.85-47.74,255.85L130.5,805.62s1.64,48.52,6.71,60.93C137.79,868,397.71,877.56,424.41,843.85Z"/><path class="cls-4" d="M614.94,390.37c-5.57-5.69-35.84-78.73-35.84-78.73L558.9,195.19s84,140.55,86.74,144.68c0,0,78.25-11,116.17-19.13,2.81-2.19,13.21-8.35,14.9-11.61l.06-.12c2.57-4.9,8.93-14,11-15.76,2.38-2,7.41-6,10.47-8.35s6.56-5.25,8.33-6.31c1.07-.63,2.76-2.87,3.92-4.53a3.3,3.3,0,0,1,6,1.45c.36,2.81-1.87,6.2-3.27,8.3-3.94,5.93-13.17,12.53-12.24,13.09s19.4-4.78,21.55-5.26,23.66-6.56,28.22-6.36,5.2,3.07,3.25,4.85c-1.67,1.53-30.76,12.13-30.76,12.13s-3.71,1.37-1.85,2.38,28.28-8.56,32.49-9.25,7.34.82,5.38,4.33C856.83,304,828,312.48,828,312.48s-3.6,1.13-2.6,2.41,23.36-7.24,25.75-7,4.42,2.72,2,5.55c-2.89,3.34-28.7,10.69-28.7,10.69s-1.8,1.12-.74,1.71,20.63-5.32,23.21-4.27a2.19,2.19,0,0,1,1.42,2.83c-.69,4.51-20.51,7.62-29.1,11.81-2.48,1.21-21.69,6.17-48,12.64v-.15c-29.31,9.39-108.62,36-108.62,36S620.51,396.05,614.94,390.37Z"/><path class="cls-4" d="M244.74,273.46c5.64-5.62,174.14-78.88,174.14-78.88l-9,65.24S299.63,301,295.52,303.7c0,0,11.67,78.12,20.16,116,2.21,2.79,8.47,13.13,11.74,14.8l.12.06c4.93,2.52,14.11,8.8,15.86,10.83,2,2.35,6.06,7.35,8.45,10.39s5.31,6.5,6.38,8.26c.65,1.07,2.9,2.74,4.57,3.88a3.3,3.3,0,0,1-1.4,6c-2.81.38-6.22-1.81-8.33-3.19-6-3.89-12.65-13.06-13.2-12.13s4.95,19.35,5.44,21.5,6.78,23.59,6.61,28.15-3,5.22-4.82,3.3c-1.54-1.66-12.41-30.64-12.41-30.64s-1.39-3.7-2.39-1.84,8.81,28.2,9.54,32.4-.76,7.34-4.29,5.41c-4.3-2.34-13-31.09-13-31.09s-1.15-3.59-2.43-2.57,7.45,23.28,7.24,25.67-2.68,4.44-5.54,2c-3.36-2.86-10.94-28.59-10.94-28.59s-1.13-1.79-1.71-.73,5.49,20.58,4.47,23.16a2.18,2.18,0,0,1-2.82,1.44c-4.52-.65-7.8-20.43-12.07-29-1.23-2.46-6.36-21.63-13.06-47.84h.14c-9.65-29.22-36.93-108.25-36.93-108.25S239.1,279.08,244.74,273.46Z"/><path class="cls-5" d="M583.26,267.5c.47,10.32.22,289.43.22,289.43-134.15,49.19-199.79-8.58-199.79-8.58S407,354.63,404.63,327.72C403,309.91,410.35,193.34,422,191.2c14.95-2.74,32.06-5.53,50.42-5.62,15.68-.08,76,4.93,86.47,9.61C558.9,195.19,581.29,224.13,583.26,267.5Z"/><path class="cls-2" d="M495.06,130.49,480,187.14s27.26,76.66,48.48,72.52c17.8-3.47,13.37-67.44,13.37-67.44s-6.09-34.71-1.59-51.35S495.06,130.49,495.06,130.49Z"/><path class="cls-6" d="M540.21,140.87c4.49-16.63-45.15-10.38-45.15-10.38l-1.27,4.88a27.46,27.46,0,0,0,4.44,8.84c9.74,12.26,26,20.65,40.64,22.61C538.3,157.56,538.36,147.69,540.21,140.87Z"/><path class="cls-2" d="M495.43,45.22c-1.32-.62-17.71,66.93-1.3,87.58s51.39,30.33,65.63,16.74c15.74-15,22.3-88.71-4.19-110.9S495.43,45.22,495.43,45.22Z"/><path class="cls-2" d="M510.89,99c-.68,8.37-5.32,14.83-10.36,14.41s-8.58-7.54-7.9-15.91S498,82.67,503,83.09,511.57,90.62,510.89,99Z"/><path class="cls-5" d="M452.92,50.93c-4.05,16.45,0,34.14,8.17,49A114.27,114.27,0,0,0,474.48,119c5.13,6,11.06,11.12,15.88,17.42.14.17.3.37.53.37a.72.72,0,0,0,.33-.11c5.52-2.91,8.66-9.15,6.55-15.23-1-3-3.22-5.31-4.95-7.91-4.93-7.39-5.43-18.58,1.37-24.3a9.8,9.8,0,0,1,5.75-2.45c4.7-.2,8.55,4.09,9.81,8.63,1.6,5.75-.68,12,1.65,17.52a5.85,5.85,0,0,0,1.73,2.49c2.33,1.76,7.39,1,8.92-1.42,1.23-2,.88-6.83.51-9-.49-2.8-1.48-5.48-2-8.27-1.23-6.44.08-13,2.07-19.12.23-.72,5.24-14.85,7.25-12.8,6.45,6.55,16.22,8.75,25.42,8.63,9.69-.13,19.72-2.7,26.89-9.22C593,54.38,594.91,38.2,595,23.55c-1.23,4.46-6.22,7.1-10.85,7s-8.9-2.51-12.68-5.2c-7.36-5.24-13.62-12-21.22-16.86a54.63,54.63,0,0,0-49.12-4.66c-6,2.42-11.49,6-15.22,11.41-3.06,4.44-4.72,8.18-9.64,10.82C464.59,32.25,456.35,37,452.92,50.93Z"/></g></g></svg>